  0
SECTION
  2
HEADER
  9
$ACADVER
  1
AC1009
  9
$DWGCODEPAGE
  3
ansi_1252
  9
$INSBASE
 10
0.0
 20
0.0
 30
0.0
  9
$EXTMIN
 10
-117.5353
 20
-90.2579
 30
0.0
  9
$EXTMAX
 10
11.4906
 20
-7.5121
 30
0.0
  9
$LIMMIN
 10
0.0
 20
0.0
  9
$LIMMAX
 10
12.0
 20
9.0
  9
$ORTHOMODE
 70
     0
  9
$REGENMODE
 70
     1
  9
$FILLMODE
 70
     1
  9
$QTEXTMODE
 70
     0
  9
$MIRRTEXT
 70
     1
  9
$DRAGMODE
 70
     2
  9
$LTSCALE
 40
1.0
  9
$OSMODE
 70
    37
  9
$ATTMODE
 70
     1
  9
$TEXTSIZE
 40
0.2
  9
$TRACEWID
 40
0.05
  9
$TEXTSTYLE
  7
STANDARD
  9
$CLAYER
  8
0
  9
$CELTYPE
  6
BYLAYER
  9
$CECOLOR
 62
   256
  9
$DIMSCALE
 40
1.0
  9
$DIMASZ
 40
0.18
  9
$DIMEXO
 40
0.0625
  9
$DIMDLI
 40
0.38
  9
$DIMRND
 40
0.0
  9
$DIMDLE
 40
0.0
  9
$DIMEXE
 40
0.18
  9
$DIMTP
 40
0.0
  9
$DIMTM
 40
0.0
  9
$DIMTXT
 40
0.18
  9
$DIMCEN
 40
0.09
  9
$DIMTSZ
 40
0.0
  9
$DIMTOL
 70
     0
  9
$DIMLIM
 70
     0
  9
$DIMTIH
 70
     1
  9
$DIMTOH
 70
     1
  9
$DIMSE1
 70
     0
  9
$DIMSE2
 70
     0
  9
$DIMTAD
 70
     0
  9
$DIMZIN
 70
     0
  9
$DIMBLK
  1

  9
$DIMASO
 70
     1
  9
$DIMSHO
 70
     1
  9
$DIMPOST
  1

  9
$DIMAPOST
  1

  9
$DIMALT
 70
     0
  9
$DIMALTD
 70
     2
  9
$DIMALTF
 40
25.4
  9
$DIMLFAC
 40
1.0
  9
$DIMTOFL
 70
     0
  9
$DIMTVP
 40
0.0
  9
$DIMTIX
 70
     0
  9
$DIMSOXD
 70
     0
  9
$DIMSAH
 70
     0
  9
$DIMBLK1
  1

  9
$DIMBLK2
  1

  9
$DIMSTYLE
  2
STANDARD
  9
$DIMCLRD
 70
     0
  9
$DIMCLRE
 70
     0
  9
$DIMCLRT
 70
     0
  9
$DIMTFAC
 40
1.0
  9
$DIMGAP
 40
0.09
  9
$LUNITS
 70
     2
  9
$LUPREC
 70
     4
  9
$SKETCHINC
 40
0.1
  9
$FILLETRAD
 40
0.5
  9
$AUNITS
 70
     0
  9
$AUPREC
 70
     0
  9
$MENU
  1
.
  9
$ELEVATION
 40
0.0
  9
$PELEVATION
 40
0.0
  9
$THICKNESS
 40
0.0
  9
$LIMCHECK
 70
     0
  9
$CHAMFERA
 40
0.0
  9
$CHAMFERB
 40
0.0
  9
$SKPOLY
 70
     0
  9
$TDCREATE
 40
2457978.561561042
  9
$TDUPDATE
 40
2457978.561561042
  9
$TDINDWG
 40
0.0000000116
  9
$TDUSRTIMER
 40
0.0000000116
  9
$USRTIMER
 70
     1
  9
$ANGBASE
 50
0.0
  9
$ANGDIR
 70
     0
  9
$PDMODE
 70
     0
  9
$PDSIZE
 40
0.0
  9
$PLINEWID
 40
0.0
  9
$COORDS
 70
     1
  9
$SPLFRAME
 70
     0
  9
$SPLINETYPE
 70
     6
  9
$SPLINESEGS
 70
     8
  9
$ATTDIA
 70
     0
  9
$ATTREQ
 70
     1
  9
$HANDLING
 70
     1
  9
$HANDSEED
  5
180
  9
$SURFTAB1
 70
     6
  9
$SURFTAB2
 70
     6
  9
$SURFTYPE
 70
     6
  9
$SURFU
 70
     6
  9
$SURFV
 70
     6
  9
$UCSNAME
  2

  9
$UCSORG
 10
0.0
 20
0.0
 30
0.0
  9
$UCSXDIR
 10
1.0
 20
0.0
 30
0.0
  9
$UCSYDIR
 10
0.0
 20
1.0
 30
0.0
  9
$PUCSNAME
  2

  9
$PUCSORG
 10
0.0
 20
0.0
 30
0.0
  9
$PUCSXDIR
 10
1.0
 20
0.0
 30
0.0
  9
$PUCSYDIR
 10
0.0
 20
1.0
 30
0.0
  9
$USERI1
 70
     0
  9
$USERI2
 70
     0
  9
$USERI3
 70
     0
  9
$USERI4
 70
     0
  9
$USERI5
 70
     0
  9
$USERR1
 40
0.0
  9
$USERR2
 40
0.0
  9
$USERR3
 40
0.0
  9
$USERR4
 40
0.0
  9
$USERR5
 40
0.0
  9
$WORLDVIEW
 70
     1
  9
$SHADEDGE
 70
     3
  9
$SHADEDIF
 70
    70
  9
$TILEMODE
 70
     1
  9
$MAXACTVP
 70
    64
  9
$PLIMCHECK
 70
     0
  9
$PEXTMIN
 10
1.000000000000000E+20
 20
1.000000000000000E+20
 30
1.000000000000000E+20
  9
$PEXTMAX
 10
-1.000000000000000E+20
 20
-1.000000000000000E+20
 30
-1.000000000000000E+20
  9
$PLIMMIN
 10
0.0
 20
0.0
  9
$PLIMMAX
 10
12.0
 20
9.0
  9
$UNITMODE
 70
     0
  9
$VISRETAIN
 70
     1
  9
$PLINEGEN
 70
     0
  9
$PSLTSCALE
 70
     1
  0
ENDSEC
  0
SECTION
  2
TABLES
  0
TABLE
  2
VPORT
 70
     1
  0
VPORT
  2
*ACTIVE
 70
     0
 10
0.0
 20
0.0
 11
1.0
 21
1.0
 12
10.42990654205607
 22
4.5
 13
0.0
 23
0.0
 14
0.5
 24
0.5
 15
0.5
 25
0.5
 16
0.0
 26
0.0
 36
1.0
 17
0.0
 27
0.0
 37
0.0
 40
9.0
 41
1.972972972850329
 42
50.0
 43
0.0
 44
0.0
 50
0.0
 51
0.0
 71
     0
 72
   100
 73
     1
 74
     3
 75
     0
 76
     0
 77
     0
 78
     0
  0
ENDTAB
  0
TABLE
  2
LTYPE
 70
     1
  0
LTYPE
  2
CONTINUOUS
 70
     0
  3
Solid line
 72
    65
 73
     0
 40
0.0
  0
ENDTAB
  0
TABLE
  2
LAYER
 70
     2
  0
LAYER
  2
0
 70
     0
 62
     7
  6
CONTINUOUS
  0
LAYER
  2
SDFSD
 70
     0
 62
     7
  6
CONTINUOUS
  0
ENDTAB
  0
TABLE
  2
STYLE
 70
     1
  0
STYLE
  2
STANDARD
 70
     0
 40
0.0
 41
1.0
 50
0.0
 71
     0
 42
0.2
  3
txt
  4

  0
ENDTAB
  0
TABLE
  2
VIEW
 70
     0
  0
ENDTAB
  0
TABLE
  2
UCS
 70
     0
  0
ENDTAB
  0
TABLE
  2
APPID
 70
     2
  0
APPID
  2
ACAD
 70
     0
  0
APPID
  2
ODA
 70
     0
  0
ENDTAB
  0
TABLE
  2
DIMSTYLE
 70
     1
  0
DIMSTYLE
  2
STANDARD
 70
     0
  3

  4

  5

  6

  7

 40
1.0
 41
0.18
 42
0.0625
 43
0.38
 44
0.18
 45
0.0
 46
0.0
 47
0.0
 48
0.0
140
0.18
141
0.09
142
0.0
143
25.4
144
1.0
145
0.0
146
1.0
147
0.09
 71
     0
 72
     0
 73
     1
 74
     1
 75
     0
 76
     0
 77
     0
 78
     0
170
     0
171
     2
172
     0
173
     0
174
     0
175
     0
176
     0
177
     0
178
     0
  0
ENDTAB
  0
ENDSEC
  0
SECTION
  2
BLOCKS
  0
BLOCK
  8
0
  2
$MODEL_SPACE
 70
     0
 10
0.0
 20
0.0
 30
0.0
  3
$MODEL_SPACE
  1

  0
ENDBLK
  5
21
  8
0
  0
BLOCK
 67
     1
  8
0
  2
$PAPER_SPACE
 70
     0
 10
0.0
 20
0.0
 30
0.0
  3
$PAPER_SPACE
  1

  0
ENDBLK
  5
1D
 67
     1
  8
0
  0
ENDSEC
  0
SECTION
  2
ENTITIES
  0
POLYLINE
  5
70
  8
SDFSD
 62
   250
 66
     1
 10
0.0
 20
0.0
 30
0.0
 70
     1
  0
VERTEX
  5
7F
  8
SDFSD
 62
   250
 10
-117.4972
 20
-50.0032
 30
0.0
  0
VERTEX
  5
80
  8
SDFSD
 62
   250
 10
-117.4972
 20
-66.6631
 30
0.0
  0
VERTEX
  5
81
  8
SDFSD
 62
   250
 10
-107.4972
 20
-66.6631
 30
0.0
  0
VERTEX
  5
82
  8
SDFSD
 62
   250
 10
-107.4972
 20
-73.6631
 30
0.0
  0
VERTEX
  5
83
  8
SDFSD
 62
   250
 10
-117.4972
 20
-73.6631
 30
0.0
  0
VERTEX
  5
84
  8
SDFSD
 62
   250
 10
-117.4972
 20
-90.2198
 30
0.0
  0
VERTEX
  5
85
  8
SDFSD
 62
   250
 10
-54.5914
 20
-90.2198
 30
0.0
  0
VERTEX
  5
86
  8
SDFSD
 62
   250
 10
-51.5246
 20
-89.9889
 30
0.0
  0
VERTEX
  5
87
  8
SDFSD
 62
   250
 10
-48.6022
 20
-89.3186
 30
0.0
  0
VERTEX
  5
88
  8
SDFSD
 62
   250
 10
-45.858
 20
-88.2429
 30
0.0
  0
VERTEX
  5
89
  8
SDFSD
 62
   250
 10
-43.3258
 20
-86.7956
 30
0.0
  0
VERTEX
  5
8A
  8
SDFSD
 62
   250
 10
-41.0395
 20
-85.0105
 30
0.0
  0
VERTEX
  5
8B
  8
SDFSD
 62
   250
 10
-39.0328
 20
-82.9214
 30
0.0
  0
VERTEX
  5
8C
  8
SDFSD
 62
   250
 10
-37.3397
 20
-80.5621
 30
0.0
  0
VERTEX
  5
8D
  8
SDFSD
 62
   250
 10
-35.994
 20
-77.9666
 30
0.0
  0
VERTEX
  5
8E
  8
SDFSD
 62
   250
 10
5.4525
 20
-90.2198
 30
0.0
  0
VERTEX
  5
8F
  8
SDFSD
 62
   250
 10
6.6578
 20
-90.0973
 30
0.0
  0
VERTEX
  5
90
  8
SDFSD
 62
   250
 10
7.7822
 20
-89.7463
 30
0.0
  0
VERTEX
  5
91
  8
SDFSD
 62
   250
 10
8.8012
 20
-89.1915
 30
0.0
  0
VERTEX
  5
92
  8
SDFSD
 62
   250
 10
9.69
 20
-88.4573
 30
0.0
  0
VERTEX
  5
93
  8
SDFSD
 62
   250
 10
10.4242
 20
-87.5684
 30
0.0
  0
VERTEX
  5
94
  8
SDFSD
 62
   250
 10
10.9791
 20
-86.5494
 30
0.0
  0
VERTEX
  5
95
  8
SDFSD
 62
   250
 10
11.33
 20
-85.425
 30
0.0
  0
VERTEX
  5
96
  8
SDFSD
 62
   250
 10
11.4525
 20
-84.2198
 30
0.0
  0
VERTEX
  5
97
  8
SDFSD
 62
   250
 10
11.4525
 20
-56.0032
 30
0.0
  0
VERTEX
  5
98
  8
SDFSD
 62
   250
 10
11.33
 20
-54.7979
 30
0.0
  0
VERTEX
  5
99
  8
SDFSD
 62
   250
 10
10.9791
 20
-53.6735
 30
0.0
  0
VERTEX
  5
9A
  8
SDFSD
 62
   250
 10
10.4242
 20
-52.6545
 30
0.0
  0
VERTEX
  5
9B
  8
SDFSD
 62
   250
 10
9.69
 20
-51.7657
 30
0.0
  0
VERTEX
  5
9C
  8
SDFSD
 62
   250
 10
8.8012
 20
-51.0315
 30
0.0
  0
VERTEX
  5
9D
  8
SDFSD
 62
   250
 10
7.7822
 20
-50.4766
 30
0.0
  0
VERTEX
  5
9E
  8
SDFSD
 62
   250
 10
6.6578
 20
-50.1257
 30
0.0
  0
VERTEX
  5
9F
  8
SDFSD
 62
   250
 10
5.4525
 20
-50.0032
 30
0.0
  0
VERTEX
  5
A0
  8
SDFSD
 62
   250
 10
-117.4972
 20
-50.0032
 30
0.0
  0
SEQEND
  5
178
  8
SDFSD
 62
   250
  0
POLYLINE
  5
71
  8
SDFSD
 62
   250
 66
     1
 10
0.0
 20
0.0
 30
0.0
 70
     1
  0
VERTEX
  5
A1
  8
SDFSD
 62
   250
 10
-45.8733
 20
-55.1625
 30
0.0
  0
VERTEX
  5
A2
  8
SDFSD
 62
   250
 10
-45.844
 20
-55.4528
 30
0.0
  0
VERTEX
  5
A3
  8
SDFSD
 62
   250
 10
-45.7601
 20
-55.7232
 30
0.0
  0
VERTEX
  5
A4
  8
SDFSD
 62
   250
 10
-45.6273
 20
-55.9678
 30
0.0
  0
VERTEX
  5
A5
  8
SDFSD
 62
   250
 10
-45.4514
 20
-56.181
 30
0.0
  0
VERTEX
  5
A6
  8
SDFSD
 62
   250
 10
-45.2382
 20
-56.3569
 30
0.0
  0
VERTEX
  5
A7
  8
SDFSD
 62
   250
 10
-44.9936
 20
-56.4897
 30
0.0
  0
VERTEX
  5
A8
  8
SDFSD
 62
   250
 10
-44.7232
 20
-56.5736
 30
0.0
  0
VERTEX
  5
A9
  8
SDFSD
 62
   250
 10
-44.4329
 20
-56.6029
 30
0.0
  0
VERTEX
  5
AA
  8
SDFSD
 62
   250
 10
-44.1426
 20
-56.5736
 30
0.0
  0
VERTEX
  5
AB
  8
SDFSD
 62
   250
 10
-43.8722
 20
-56.4897
 30
0.0
  0
VERTEX
  5
AC
  8
SDFSD
 62
   250
 10
-43.6276
 20
-56.3569
 30
0.0
  0
VERTEX
  5
AD
  8
SDFSD
 62
   250
 10
-43.4144
 20
-56.181
 30
0.0
  0
VERTEX
  5
AE
  8
SDFSD
 62
   250
 10
-43.2385
 20
-55.9678
 30
0.0
  0
VERTEX
  5
AF
  8
SDFSD
 62
   250
 10
-43.1057
 20
-55.7232
 30
0.0
  0
VERTEX
  5
B0
  8
SDFSD
 62
   250
 10
-43.0218
 20
-55.4528
 30
0.0
  0
VERTEX
  5
B1
  8
SDFSD
 62
   250
 10
-42.9925
 20
-55.1625
 30
0.0
  0
VERTEX
  5
B2
  8
SDFSD
 62
   250
 10
-43.0218
 20
-54.8722
 30
0.0
  0
VERTEX
  5
B3
  8
SDFSD
 62
   250
 10
-43.1057
 20
-54.6018
 30
0.0
  0
VERTEX
  5
B4
  8
SDFSD
 62
   250
 10
-43.2385
 20
-54.3572
 30
0.0
  0
VERTEX
  5
B5
  8
SDFSD
 62
   250
 10
-43.4144
 20
-54.144
 30
0.0
  0
VERTEX
  5
B6
  8
SDFSD
 62
   250
 10
-43.6276
 20
-53.9681
 30
0.0
  0
VERTEX
  5
B7
  8
SDFSD
 62
   250
 10
-43.8722
 20
-53.8353
 30
0.0
  0
VERTEX
  5
B8
  8
SDFSD
 62
   250
 10
-44.1426
 20
-53.7514
 30
0.0
  0
VERTEX
  5
B9
  8
SDFSD
 62
   250
 10
-44.4329
 20
-53.7221
 30
0.0
  0
VERTEX
  5
BA
  8
SDFSD
 62
   250
 10
-44.7232
 20
-53.7514
 30
0.0
  0
VERTEX
  5
BB
  8
SDFSD
 62
   250
 10
-44.9936
 20
-53.8353
 30
0.0
  0
VERTEX
  5
BC
  8
SDFSD
 62
   250
 10
-45.2382
 20
-53.9681
 30
0.0
  0
VERTEX
  5
BD
  8
SDFSD
 62
   250
 10
-45.4514
 20
-54.144
 30
0.0
  0
VERTEX
  5
BE
  8
SDFSD
 62
   250
 10
-45.6273
 20
-54.3572
 30
0.0
  0
VERTEX
  5
BF
  8
SDFSD
 62
   250
 10
-45.7601
 20
-54.6018
 30
0.0
  0
VERTEX
  5
C0
  8
SDFSD
 62
   250
 10
-45.844
 20
-54.8722
 30
0.0
  0
VERTEX
  5
C1
  8
SDFSD
 62
   250
 10
-45.8733
 20
-55.1625
 30
0.0
  0
SEQEND
  5
179
  8
SDFSD
 62
   250
  0
POLYLINE
  5
72
  8
SDFSD
 62
   250
 66
     1
 10
0.0
 20
0.0
 30
0.0
 70
     1
  0
VERTEX
  5
C2
  8
SDFSD
 62
   250
 10
-93.0972
 20
-64.4115
 30
0.0
  0
VERTEX
  5
C3
  8
SDFSD
 62
   250
 10
-79.5438
 20
-64.4115
 30
0.0
  0
VERTEX
  5
C4
  8
SDFSD
 62
   250
 10
-79.5438
 20
-75.4115
 30
0.0
  0
VERTEX
  5
C5
  8
SDFSD
 62
   250
 10
-93.0972
 20
-75.4115
 30
0.0
  0
VERTEX
  5
C6
  8
SDFSD
 62
   250
 10
-93.0972
 20
-64.4115
 30
0.0
  0
SEQEND
  5
17A
  8
SDFSD
 62
   250
  0
POLYLINE
  5
73
  8
SDFSD
 62
   250
 66
     1
 10
0.0
 20
0.0
 30
0.0
 70
     1
  0
VERTEX
  5
C7
  8
SDFSD
 62
   250
 10
-65.71
 20
-69.9886
 30
0.0
  0
VERTEX
  5
C8
  8
SDFSD
 62
   250
 10
-65.4841
 20
-72.2294
 30
0.0
  0
VERTEX
  5
C9
  8
SDFSD
 62
   250
 10
-64.8362
 20
-74.3164
 30
0.0
  0
VERTEX
  5
CA
  8
SDFSD
 62
   250
 10
-63.8111
 20
-76.2051
 30
0.0
  0
VERTEX
  5
CB
  8
SDFSD
 62
   250
 10
-62.4534
 20
-77.8506
 30
0.0
  0
VERTEX
  5
CC
  8
SDFSD
 62
   250
 10
-60.8079
 20
-79.2083
 30
0.0
  0
VERTEX
  5
CD
  8
SDFSD
 62
   250
 10
-58.9192
 20
-80.2334
 30
0.0
  0
VERTEX
  5
CE
  8
SDFSD
 62
   250
 10
-56.8322
 20
-80.8813
 30
0.0
  0
VERTEX
  5
CF
  8
SDFSD
 62
   250
 10
-54.5914
 20
-81.1072
 30
0.0
  0
VERTEX
  5
D0
  8
SDFSD
 62
   250
 10
-52.3506
 20
-80.8813
 30
0.0
  0
VERTEX
  5
D1
  8
SDFSD
 62
   250
 10
-50.2636
 20
-80.2334
 30
0.0
  0
VERTEX
  5
D2
  8
SDFSD
 62
   250
 10
-48.3749
 20
-79.2083
 30
0.0
  0
VERTEX
  5
D3
  8
SDFSD
 62
   250
 10
-46.7294
 20
-77.8506
 30
0.0
  0
VERTEX
  5
D4
  8
SDFSD
 62
   250
 10
-45.3717
 20
-76.2051
 30
0.0
  0
VERTEX
  5
D5
  8
SDFSD
 62
   250
 10
-44.3466
 20
-74.3164
 30
0.0
  0
VERTEX
  5
D6
  8
SDFSD
 62
   250
 10
-43.6987
 20
-72.2294
 30
0.0
  0
VERTEX
  5
D7
  8
SDFSD
 62
   250
 10
-43.4728
 20
-69.9886
 30
0.0
  0
VERTEX
  5
D8
  8
SDFSD
 62
   250
 10
-43.6987
 20
-67.7478
 30
0.0
  0
VERTEX
  5
D9
  8
SDFSD
 62
   250
 10
-44.3466
 20
-65.6608
 30
0.0
  0
VERTEX
  5
DA
  8
SDFSD
 62
   250
 10
-45.3717
 20
-63.7721
 30
0.0
  0
VERTEX
  5
DB
  8
SDFSD
 62
   250
 10
-46.7294
 20
-62.1266
 30
0.0
  0
VERTEX
  5
DC
  8
SDFSD
 62
   250
 10
-48.3749
 20
-60.7689
 30
0.0
  0
VERTEX
  5
DD
  8
SDFSD
 62
   250
 10
-50.2636
 20
-59.7438
 30
0.0
  0
VERTEX
  5
DE
  8
SDFSD
 62
   250
 10
-52.3506
 20
-59.0959
 30
0.0
  0
VERTEX
  5
DF
  8
SDFSD
 62
   250
 10
-54.5914
 20
-58.87
 30
0.0
  0
VERTEX
  5
E0
  8
SDFSD
 62
   250
 10
-56.8322
 20
-59.0959
 30
0.0
  0
VERTEX
  5
E1
  8
SDFSD
 62
   250
 10
-58.9192
 20
-59.7438
 30
0.0
  0
VERTEX
  5
E2
  8
SDFSD
 62
   250
 10
-60.8079
 20
-60.7689
 30
0.0
  0
VERTEX
  5
E3
  8
SDFSD
 62
   250
 10
-62.4534
 20
-62.1266
 30
0.0
  0
VERTEX
  5
E4
  8
SDFSD
 62
   250
 10
-63.8111
 20
-63.7721
 30
0.0
  0
VERTEX
  5
E5
  8
SDFSD
 62
   250
 10
-64.8362
 20
-65.6608
 30
0.0
  0
VERTEX
  5
E6
  8
SDFSD
 62
   250
 10
-65.4841
 20
-67.7478
 30
0.0
  0
VERTEX
  5
E7
  8
SDFSD
 62
   250
 10
-65.71
 20
-69.9886
 30
0.0
  0
SEQEND
  5
17B
  8
SDFSD
 62
   250
  0
POLYLINE
  5
74
  8
SDFSD
 62
   250
 66
     1
 10
0.0
 20
0.0
 30
0.0
 70
     1
  0
VERTEX
  5
E8
  8
SDFSD
 62
   250
 10
-117.4972
 20
-19.5818
 30
0.0
  0
VERTEX
  5
E9
  8
SDFSD
 62
   250
 10
-117.4972
 20
-7.9735
 30
0.0
  0
VERTEX
  5
EA
  8
SDFSD
 62
   250
 10
-109.7808
 20
-7.9553
 30
0.0
  0
VERTEX
  5
EB
  8
SDFSD
 62
   250
 10
-101.906
 20
-7.9074
 30
0.0
  0
VERTEX
  5
EC
  8
SDFSD
 62
   250
 10
-93.9255
 20
-7.8396
 30
0.0
  0
VERTEX
  5
ED
  8
SDFSD
 62
   250
 10
-85.8922
 20
-7.7619
 30
0.0
  0
VERTEX
  5
EE
  8
SDFSD
 62
   250
 10
-77.8588
 20
-7.6841
 30
0.0
  0
VERTEX
  5
EF
  8
SDFSD
 62
   250
 10
-69.8783
 20
-7.6163
 30
0.0
  0
VERTEX
  5
F0
  8
SDFSD
 62
   250
 10
-62.0035
 20
-7.5684
 30
0.0
  0
VERTEX
  5
F1
  8
SDFSD
 62
   250
 10
-54.2871
 20
-7.5502
 30
0.0
  0
VERTEX
  5
F2
  8
SDFSD
 62
   250
 10
-49.6841
 20
-7.8261
 30
0.0
  0
VERTEX
  5
F3
  8
SDFSD
 62
   250
 10
-45.8202
 20
-8.6093
 30
0.0
  0
VERTEX
  5
F4
  8
SDFSD
 62
   250
 10
-42.6568
 20
-9.8331
 30
0.0
  0
VERTEX
  5
F5
  8
SDFSD
 62
   250
 10
-40.1552
 20
-11.4308
 30
0.0
  0
VERTEX
  5
F6
  8
SDFSD
 62
   250
 10
-38.2767
 20
-13.3357
 30
0.0
  0
VERTEX
  5
F7
  8
SDFSD
 62
   250
 10
-36.9828
 20
-15.4811
 30
0.0
  0
VERTEX
  5
F8
  8
SDFSD
 62
   250
 10
-36.2348
 20
-17.8003
 30
0.0
  0
VERTEX
  5
F9
  8
SDFSD
 62
   250
 10
-35.994
 20
-20.2267
 30
0.0
  0
VERTEX
  5
FA
  8
SDFSD
 62
   250
 10
5.4525
 20
-7.9735
 30
0.0
  0
VERTEX
  5
FB
  8
SDFSD
 62
   250
 10
6.6578
 20
-8.096
 30
0.0
  0
VERTEX
  5
FC
  8
SDFSD
 62
   250
 10
7.7822
 20
-8.447
 30
0.0
  0
VERTEX
  5
FD
  8
SDFSD
 62
   250
 10
8.8012
 20
-9.0018
 30
0.0
  0
VERTEX
  5
FE
  8
SDFSD
 62
   250
 10
9.69
 20
-9.736
 30
0.0
  0
VERTEX
  5
FF
  8
SDFSD
 62
   250
 10
10.4242
 20
-10.6249
 30
0.0
  0
VERTEX
  5
100
  8
SDFSD
 62
   250
 10
10.9791
 20
-11.6439
 30
0.0
  0
VERTEX
  5
101
  8
SDFSD
 62
   250
 10
11.33
 20
-12.7683
 30
0.0
  0
VERTEX
  5
102
  8
SDFSD
 62
   250
 10
11.4525
 20
-13.9735
 30
0.0
  0
VERTEX
  5
103
  8
SDFSD
 62
   250
 10
11.4525
 20
-42.1901
 30
0.0
  0
VERTEX
  5
104
  8
SDFSD
 62
   250
 10
11.33
 20
-43.3954
 30
0.0
  0
VERTEX
  5
105
  8
SDFSD
 62
   250
 10
10.9791
 20
-44.5198
 30
0.0
  0
VERTEX
  5
106
  8
SDFSD
 62
   250
 10
10.4242
 20
-45.5388
 30
0.0
  0
VERTEX
  5
107
  8
SDFSD
 62
   250
 10
9.69
 20
-46.4276
 30
0.0
  0
VERTEX
  5
108
  8
SDFSD
 62
   250
 10
8.8012
 20
-47.1618
 30
0.0
  0
VERTEX
  5
109
  8
SDFSD
 62
   250
 10
7.7822
 20
-47.7167
 30
0.0
  0
VERTEX
  5
10A
  8
SDFSD
 62
   250
 10
6.6578
 20
-48.0676
 30
0.0
  0
VERTEX
  5
10B
  8
SDFSD
 62
   250
 10
5.4525
 20
-48.1901
 30
0.0
  0
VERTEX
  5
10C
  8
SDFSD
 62
   250
 10
-117.4972
 20
-48.1901
 30
0.0
  0
VERTEX
  5
10D
  8
SDFSD
 62
   250
 10
-117.4972
 20
-36.5818
 30
0.0
  0
VERTEX
  5
10E
  8
SDFSD
 62
   250
 10
-73.4972
 20
-36.5818
 30
0.0
  0
VERTEX
  5
10F
  8
SDFSD
 62
   250
 10
-73.4972
 20
-19.5818
 30
0.0
  0
VERTEX
  5
110
  8
SDFSD
 62
   250
 10
-117.4972
 20
-19.5818
 30
0.0
  0
SEQEND
  5
17C
  8
SDFSD
 62
   250
  0
POLYLINE
  5
75
  8
SDFSD
 62
   250
 66
     1
 10
0.0
 20
0.0
 30
0.0
 70
     1
  0
VERTEX
  5
111
  8
SDFSD
 62
   250
 10
-44.4329
 20
-44.4712
 30
0.0
  0
VERTEX
  5
112
  8
SDFSD
 62
   250
 10
-44.1426
 20
-44.4419
 30
0.0
  0
VERTEX
  5
113
  8
SDFSD
 62
   250
 10
-43.8722
 20
-44.358
 30
0.0
  0
VERTEX
  5
114
  8
SDFSD
 62
   250
 10
-43.6276
 20
-44.2252
 30
0.0
  0
VERTEX
  5
115
  8
SDFSD
 62
   250
 10
-43.4144
 20
-44.0493
 30
0.0
  0
VERTEX
  5
116
  8
SDFSD
 62
   250
 10
-43.2385
 20
-43.8361
 30
0.0
  0
VERTEX
  5
117
  8
SDFSD
 62
   250
 10
-43.1057
 20
-43.5915
 30
0.0
  0
VERTEX
  5
118
  8
SDFSD
 62
   250
 10
-43.0218
 20
-43.3211
 30
0.0
  0
VERTEX
  5
119
  8
SDFSD
 62
   250
 10
-42.9925
 20
-43.0308
 30
0.0
  0
VERTEX
  5
11A
  8
SDFSD
 62
   250
 10
-43.0218
 20
-42.7405
 30
0.0
  0
VERTEX
  5
11B
  8
SDFSD
 62
   250
 10
-43.1057
 20
-42.4701
 30
0.0
  0
VERTEX
  5
11C
  8
SDFSD
 62
   250
 10
-43.2385
 20
-42.2255
 30
0.0
  0
VERTEX
  5
11D
  8
SDFSD
 62
   250
 10
-43.4144
 20
-42.0123
 30
0.0
  0
VERTEX
  5
11E
  8
SDFSD
 62
   250
 10
-43.6276
 20
-41.8364
 30
0.0
  0
VERTEX
  5
11F
  8
SDFSD
 62
   250
 10
-43.8722
 20
-41.7036
 30
0.0
  0
VERTEX
  5
120
  8
SDFSD
 62
   250
 10
-44.1426
 20
-41.6197
 30
0.0
  0
VERTEX
  5
121
  8
SDFSD
 62
   250
 10
-44.4329
 20
-41.5904
 30
0.0
  0
VERTEX
  5
122
  8
SDFSD
 62
   250
 10
-44.7232
 20
-41.6197
 30
0.0
  0
VERTEX
  5
123
  8
SDFSD
 62
   250
 10
-44.9936
 20
-41.7036
 30
0.0
  0
VERTEX
  5
124
  8
SDFSD
 62
   250
 10
-45.2382
 20
-41.8364
 30
0.0
  0
VERTEX
  5
125
  8
SDFSD
 62
   250
 10
-45.4514
 20
-42.0123
 30
0.0
  0
VERTEX
  5
126
  8
SDFSD
 62
   250
 10
-45.6273
 20
-42.2255
 30
0.0
  0
VERTEX
  5
127
  8
SDFSD
 62
   250
 10
-45.7601
 20
-42.4701
 30
0.0
  0
VERTEX
  5
128
  8
SDFSD
 62
   250
 10
-45.844
 20
-42.7405
 30
0.0
  0
VERTEX
  5
129
  8
SDFSD
 62
   250
 10
-45.8733
 20
-43.0308
 30
0.0
  0
VERTEX
  5
12A
  8
SDFSD
 62
   250
 10
-45.844
 20
-43.3211
 30
0.0
  0
VERTEX
  5
12B
  8
SDFSD
 62
   250
 10
-45.7601
 20
-43.5915
 30
0.0
  0
VERTEX
  5
12C
  8
SDFSD
 62
   250
 10
-45.6273
 20
-43.8361
 30
0.0
  0
VERTEX
  5
12D
  8
SDFSD
 62
   250
 10
-45.4514
 20
-44.0493
 30
0.0
  0
VERTEX
  5
12E
  8
SDFSD
 62
   250
 10
-45.2382
 20
-44.2252
 30
0.0
  0
VERTEX
  5
12F
  8
SDFSD
 62
   250
 10
-44.9936
 20
-44.358
 30
0.0
  0
VERTEX
  5
130
  8
SDFSD
 62
   250
 10
-44.7232
 20
-44.4419
 30
0.0
  0
VERTEX
  5
131
  8
SDFSD
 62
   250
 10
-44.4329
 20
-44.4712
 30
0.0
  0
SEQEND
  5
17D
  8
SDFSD
 62
   250
  0
POLYLINE
  5
76
  8
SDFSD
 62
   250
 66
     1
 10
0.0
 20
0.0
 30
0.0
 70
     1
  0
VERTEX
  5
132
  8
SDFSD
 62
   250
 10
-54.5914
 20
-39.3233
 30
0.0
  0
VERTEX
  5
133
  8
SDFSD
 62
   250
 10
-52.3506
 20
-39.0974
 30
0.0
  0
VERTEX
  5
134
  8
SDFSD
 62
   250
 10
-50.2636
 20
-38.4495
 30
0.0
  0
VERTEX
  5
135
  8
SDFSD
 62
   250
 10
-48.3749
 20
-37.4244
 30
0.0
  0
VERTEX
  5
136
  8
SDFSD
 62
   250
 10
-46.7294
 20
-36.0667
 30
0.0
  0
VERTEX
  5
137
  8
SDFSD
 62
   250
 10
-45.3717
 20
-34.4212
 30
0.0
  0
VERTEX
  5
138
  8
SDFSD
 62
   250
 10
-44.3466
 20
-32.5325
 30
0.0
  0
VERTEX
  5
139
  8
SDFSD
 62
   250
 10
-43.6987
 20
-30.4455
 30
0.0
  0
VERTEX
  5
13A
  8
SDFSD
 62
   250
 10
-43.4728
 20
-28.2047
 30
0.0
  0
VERTEX
  5
13B
  8
SDFSD
 62
   250
 10
-43.6987
 20
-25.9639
 30
0.0
  0
VERTEX
  5
13C
  8
SDFSD
 62
   250
 10
-44.3466
 20
-23.8769
 30
0.0
  0
VERTEX
  5
13D
  8
SDFSD
 62
   250
 10
-45.3717
 20
-21.9882
 30
0.0
  0
VERTEX
  5
13E
  8
SDFSD
 62
   250
 10
-46.7294
 20
-20.3427
 30
0.0
  0
VERTEX
  5
13F
  8
SDFSD
 62
   250
 10
-48.3749
 20
-18.985
 30
0.0
  0
VERTEX
  5
140
  8
SDFSD
 62
   250
 10
-50.2636
 20
-17.9599
 30
0.0
  0
VERTEX
  5
141
  8
SDFSD
 62
   250
 10
-52.3506
 20
-17.312
 30
0.0
  0
VERTEX
  5
142
  8
SDFSD
 62
   250
 10
-54.5914
 20
-17.0861
 30
0.0
  0
VERTEX
  5
143
  8
SDFSD
 62
   250
 10
-56.8322
 20
-17.312
 30
0.0
  0
VERTEX
  5
144
  8
SDFSD
 62
   250
 10
-58.9192
 20
-17.9599
 30
0.0
  0
VERTEX
  5
145
  8
SDFSD
 62
   250
 10
-60.8079
 20
-18.985
 30
0.0
  0
VERTEX
  5
146
  8
SDFSD
 62
   250
 10
-62.4534
 20
-20.3427
 30
0.0
  0
VERTEX
  5
147
  8
SDFSD
 62
   250
 10
-63.8111
 20
-21.9882
 30
0.0
  0
VERTEX
  5
148
  8
SDFSD
 62
   250
 10
-64.8362
 20
-23.8769
 30
0.0
  0
VERTEX
  5
149
  8
SDFSD
 62
   250
 10
-65.4841
 20
-25.9639
 30
0.0
  0
VERTEX
  5
14A
  8
SDFSD
 62
   250
 10
-65.71
 20
-28.2047
 30
0.0
  0
VERTEX
  5
14B
  8
SDFSD
 62
   250
 10
-65.4841
 20
-30.4455
 30
0.0
  0
VERTEX
  5
14C
  8
SDFSD
 62
   250
 10
-64.8362
 20
-32.5325
 30
0.0
  0
VERTEX
  5
14D
  8
SDFSD
 62
   250
 10
-63.8111
 20
-34.4212
 30
0.0
  0
VERTEX
  5
14E
  8
SDFSD
 62
   250
 10
-62.4534
 20
-36.0667
 30
0.0
  0
VERTEX
  5
14F
  8
SDFSD
 62
   250
 10
-60.8079
 20
-37.4244
 30
0.0
  0
VERTEX
  5
150
  8
SDFSD
 62
   250
 10
-58.9192
 20
-38.4495
 30
0.0
  0
VERTEX
  5
151
  8
SDFSD
 62
   250
 10
-56.8322
 20
-39.0974
 30
0.0
  0
VERTEX
  5
152
  8
SDFSD
 62
   250
 10
-54.5914
 20
-39.3233
 30
0.0
  0
SEQEND
  5
17E
  8
SDFSD
 62
   250
  0
POLYLINE
  5
77
  8
SDFSD
 62
   250
 66
     1
 10
0.0
 20
0.0
 30
0.0
 70
     1
  0
VERTEX
  5
153
  8
SDFSD
 62
   250
 10
-69.6111
 20
-31.5051
 30
0.0
  0
VERTEX
  5
154
  8
SDFSD
 62
   250
 10
-68.7005
 20
-31.5051
 30
0.0
  0
VERTEX
  5
155
  8
SDFSD
 62
   250
 10
-68.4996
 20
-31.4847
 30
0.0
  0
VERTEX
  5
156
  8
SDFSD
 62
   250
 10
-68.3122
 20
-31.4262
 30
0.0
  0
VERTEX
  5
157
  8
SDFSD
 62
   250
 10
-68.1424
 20
-31.3337
 30
0.0
  0
VERTEX
  5
158
  8
SDFSD
 62
   250
 10
-67.9943
 20
-31.2114
 30
0.0
  0
VERTEX
  5
159
  8
SDFSD
 62
   250
 10
-67.872
 20
-31.0633
 30
0.0
  0
VERTEX
  5
15A
  8
SDFSD
 62
   250
 10
-67.7795
 20
-30.8935
 30
0.0
  0
VERTEX
  5
15B
  8
SDFSD
 62
   250
 10
-67.721
 20
-30.7061
 30
0.0
  0
VERTEX
  5
15C
  8
SDFSD
 62
   250
 10
-67.7006
 20
-30.5052
 30
0.0
  0
VERTEX
  5
15D
  8
SDFSD
 62
   250
 10
-67.7006
 20
-25.9042
 30
0.0
  0
VERTEX
  5
15E
  8
SDFSD
 62
   250
 10
-67.721
 20
-25.7033
 30
0.0
  0
VERTEX
  5
15F
  8
SDFSD
 62
   250
 10
-67.7795
 20
-25.5159
 30
0.0
  0
VERTEX
  5
160
  8
SDFSD
 62
   250
 10
-67.872
 20
-25.3461
 30
0.0
  0
VERTEX
  5
161
  8
SDFSD
 62
   250
 10
-67.9943
 20
-25.198
 30
0.0
  0
VERTEX
  5
162
  8
SDFSD
 62
   250
 10
-68.1424
 20
-25.0757
 30
0.0
  0
VERTEX
  5
163
  8
SDFSD
 62
   250
 10
-68.3122
 20
-24.9832
 30
0.0
  0
VERTEX
  5
164
  8
SDFSD
 62
   250
 10
-68.4996
 20
-24.9247
 30
0.0
  0
VERTEX
  5
165
  8
SDFSD
 62
   250
 10
-68.7005
 20
-24.9043
 30
0.0
  0
VERTEX
  5
166
  8
SDFSD
 62
   250
 10
-69.6111
 20
-24.9043
 30
0.0
  0
VERTEX
  5
167
  8
SDFSD
 62
   250
 10
-69.812
 20
-24.9247
 30
0.0
  0
VERTEX
  5
168
  8
SDFSD
 62
   250
 10
-69.9994
 20
-24.9832
 30
0.0
  0
VERTEX
  5
169
  8
SDFSD
 62
   250
 10
-70.1692
 20
-25.0757
 30
0.0
  0
VERTEX
  5
16A
  8
SDFSD
 62
   250
 10
-70.3173
 20
-25.198
 30
0.0
  0
VERTEX
  5
16B
  8
SDFSD
 62
   250
 10
-70.4396
 20
-25.3461
 30
0.0
  0
VERTEX
  5
16C
  8
SDFSD
 62
   250
 10
-70.5321
 20
-25.5159
 30
0.0
  0
VERTEX
  5
16D
  8
SDFSD
 62
   250
 10
-70.5906
 20
-25.7033
 30
0.0
  0
VERTEX
  5
16E
  8
SDFSD
 62
   250
 10
-70.611
 20
-25.9042
 30
0.0
  0
VERTEX
  5
16F
  8
SDFSD
 62
   250
 10
-70.611
 20
-30.5052
 30
0.0
  0
VERTEX
  5
170
  8
SDFSD
 62
   250
 10
-70.5906
 20
-30.7061
 30
0.0
  0
VERTEX
  5
171
  8
SDFSD
 62
   250
 10
-70.5321
 20
-30.8935
 30
0.0
  0
VERTEX
  5
172
  8
SDFSD
 62
   250
 10
-70.4396
 20
-31.0633
 30
0.0
  0
VERTEX
  5
173
  8
SDFSD
 62
   250
 10
-70.3173
 20
-31.2114
 30
0.0
  0
VERTEX
  5
174
  8
SDFSD
 62
   250
 10
-70.1692
 20
-31.3337
 30
0.0
  0
VERTEX
  5
175
  8
SDFSD
 62
   250
 10
-69.9994
 20
-31.4262
 30
0.0
  0
VERTEX
  5
176
  8
SDFSD
 62
   250
 10
-69.812
 20
-31.4847
 30
0.0
  0
VERTEX
  5
177
  8
SDFSD
 62
   250
 10
-69.6111
 20
-31.5051
 30
0.0
  0
SEQEND
  5
17F
  8
SDFSD
 62
   250
  0
ENDSEC
  0
EOF
