  0
SECTION
  2
HEADER
  9
$ACADVER
  1
AC1009
  9
$DWGCODEPAGE
  3
ansi_1252
  9
$INSBASE
 10
0.0
 20
0.0
 30
0.0
  9
$EXTMIN
 10
-106.8356
 20
5.0777
 30
0.0
  9
$EXTMAX
 10
11.4906
 20
89.7392
 30
0.0
  9
$LIMMIN
 10
0.0
 20
0.0
  9
$LIMMAX
 10
12.0
 20
9.0
  9
$ORTHOMODE
 70
     0
  9
$REGENMODE
 70
     1
  9
$FILLMODE
 70
     1
  9
$QTEXTMODE
 70
     0
  9
$MIRRTEXT
 70
     1
  9
$DRAGMODE
 70
     2
  9
$LTSCALE
 40
1.0
  9
$OSMODE
 70
    37
  9
$ATTMODE
 70
     1
  9
$TEXTSIZE
 40
0.2
  9
$TRACEWID
 40
0.05
  9
$TEXTSTYLE
  7
STANDARD
  9
$CLAYER
  8
0
  9
$CELTYPE
  6
BYLAYER
  9
$CECOLOR
 62
   256
  9
$DIMSCALE
 40
1.0
  9
$DIMASZ
 40
0.18
  9
$DIMEXO
 40
0.0625
  9
$DIMDLI
 40
0.38
  9
$DIMRND
 40
0.0
  9
$DIMDLE
 40
0.0
  9
$DIMEXE
 40
0.18
  9
$DIMTP
 40
0.0
  9
$DIMTM
 40
0.0
  9
$DIMTXT
 40
0.18
  9
$DIMCEN
 40
0.09
  9
$DIMTSZ
 40
0.0
  9
$DIMTOL
 70
     0
  9
$DIMLIM
 70
     0
  9
$DIMTIH
 70
     1
  9
$DIMTOH
 70
     1
  9
$DIMSE1
 70
     0
  9
$DIMSE2
 70
     0
  9
$DIMTAD
 70
     0
  9
$DIMZIN
 70
     0
  9
$DIMBLK
  1

  9
$DIMASO
 70
     1
  9
$DIMSHO
 70
     1
  9
$DIMPOST
  1

  9
$DIMAPOST
  1

  9
$DIMALT
 70
     0
  9
$DIMALTD
 70
     2
  9
$DIMALTF
 40
25.4
  9
$DIMLFAC
 40
1.0
  9
$DIMTOFL
 70
     0
  9
$DIMTVP
 40
0.0
  9
$DIMTIX
 70
     0
  9
$DIMSOXD
 70
     0
  9
$DIMSAH
 70
     0
  9
$DIMBLK1
  1

  9
$DIMBLK2
  1

  9
$DIMSTYLE
  2
STANDARD
  9
$DIMCLRD
 70
     0
  9
$DIMCLRE
 70
     0
  9
$DIMCLRT
 70
     0
  9
$DIMTFAC
 40
1.0
  9
$DIMGAP
 40
0.09
  9
$LUNITS
 70
     2
  9
$LUPREC
 70
     4
  9
$SKETCHINC
 40
0.1
  9
$FILLETRAD
 40
0.5
  9
$AUNITS
 70
     0
  9
$AUPREC
 70
     0
  9
$MENU
  1
.
  9
$ELEVATION
 40
0.0
  9
$PELEVATION
 40
0.0
  9
$THICKNESS
 40
0.0
  9
$LIMCHECK
 70
     0
  9
$CHAMFERA
 40
0.0
  9
$CHAMFERB
 40
0.0
  9
$SKPOLY
 70
     0
  9
$TDCREATE
 40
2457976.692870185
  9
$TDUPDATE
 40
2457976.692870197
  9
$TDINDWG
 40
0.0000000116
  9
$TDUSRTIMER
 40
0.0000000116
  9
$USRTIMER
 70
     1
  9
$ANGBASE
 50
0.0
  9
$ANGDIR
 70
     0
  9
$PDMODE
 70
     0
  9
$PDSIZE
 40
0.0
  9
$PLINEWID
 40
0.0
  9
$COORDS
 70
     1
  9
$SPLFRAME
 70
     0
  9
$SPLINETYPE
 70
     6
  9
$SPLINESEGS
 70
     8
  9
$ATTDIA
 70
     0
  9
$ATTREQ
 70
     1
  9
$HANDLING
 70
     1
  9
$HANDSEED
  5
1AB
  9
$SURFTAB1
 70
     6
  9
$SURFTAB2
 70
     6
  9
$SURFTYPE
 70
     6
  9
$SURFU
 70
     6
  9
$SURFV
 70
     6
  9
$UCSNAME
  2

  9
$UCSORG
 10
0.0
 20
0.0
 30
0.0
  9
$UCSXDIR
 10
1.0
 20
0.0
 30
0.0
  9
$UCSYDIR
 10
0.0
 20
1.0
 30
0.0
  9
$PUCSNAME
  2

  9
$PUCSORG
 10
0.0
 20
0.0
 30
0.0
  9
$PUCSXDIR
 10
1.0
 20
0.0
 30
0.0
  9
$PUCSYDIR
 10
0.0
 20
1.0
 30
0.0
  9
$USERI1
 70
     0
  9
$USERI2
 70
     0
  9
$USERI3
 70
     0
  9
$USERI4
 70
     0
  9
$USERI5
 70
     0
  9
$USERR1
 40
0.0
  9
$USERR2
 40
0.0
  9
$USERR3
 40
0.0
  9
$USERR4
 40
0.0
  9
$USERR5
 40
0.0
  9
$WORLDVIEW
 70
     1
  9
$SHADEDGE
 70
     3
  9
$SHADEDIF
 70
    70
  9
$TILEMODE
 70
     1
  9
$MAXACTVP
 70
    64
  9
$PLIMCHECK
 70
     0
  9
$PEXTMIN
 10
1.000000000000000E+20
 20
1.000000000000000E+20
 30
1.000000000000000E+20
  9
$PEXTMAX
 10
-1.000000000000000E+20
 20
-1.000000000000000E+20
 30
-1.000000000000000E+20
  9
$PLIMMIN
 10
0.0
 20
0.0
  9
$PLIMMAX
 10
12.0
 20
9.0
  9
$UNITMODE
 70
     0
  9
$VISRETAIN
 70
     1
  9
$PLINEGEN
 70
     0
  9
$PSLTSCALE
 70
     1
  0
ENDSEC
  0
SECTION
  2
TABLES
  0
TABLE
  2
VPORT
 70
     1
  0
VPORT
  2
*ACTIVE
 70
     0
 10
0.0
 20
0.0
 11
1.0
 21
1.0
 12
10.42990654205607
 22
4.5
 13
0.0
 23
0.0
 14
0.5
 24
0.5
 15
0.5
 25
0.5
 16
0.0
 26
0.0
 36
1.0
 17
0.0
 27
0.0
 37
0.0
 40
9.0
 41
1.972972972850329
 42
50.0
 43
0.0
 44
0.0
 50
0.0
 51
0.0
 71
     0
 72
   100
 73
     1
 74
     3
 75
     0
 76
     0
 77
     0
 78
     0
  0
ENDTAB
  0
TABLE
  2
LTYPE
 70
     1
  0
LTYPE
  2
CONTINUOUS
 70
     0
  3
Solid line
 72
    65
 73
     0
 40
0.0
  0
ENDTAB
  0
TABLE
  2
LAYER
 70
     2
  0
LAYER
  2
0
 70
     0
 62
     7
  6
CONTINUOUS
  0
LAYER
  2
SDFSD
 70
     0
 62
     7
  6
CONTINUOUS
  0
ENDTAB
  0
TABLE
  2
STYLE
 70
     1
  0
STYLE
  2
STANDARD
 70
     0
 40
0.0
 41
1.0
 50
0.0
 71
     0
 42
0.2
  3
txt
  4

  0
ENDTAB
  0
TABLE
  2
VIEW
 70
     0
  0
ENDTAB
  0
TABLE
  2
UCS
 70
     0
  0
ENDTAB
  0
TABLE
  2
APPID
 70
     2
  0
APPID
  2
ACAD
 70
     0
  0
APPID
  2
ODA
 70
     0
  0
ENDTAB
  0
TABLE
  2
DIMSTYLE
 70
     1
  0
DIMSTYLE
  2
STANDARD
 70
     0
  3

  4

  5

  6

  7

 40
1.0
 41
0.18
 42
0.0625
 43
0.38
 44
0.18
 45
0.0
 46
0.0
 47
0.0
 48
0.0
140
0.18
141
0.09
142
0.0
143
25.4
144
1.0
145
0.0
146
1.0
147
0.09
 71
     0
 72
     0
 73
     1
 74
     1
 75
     0
 76
     0
 77
     0
 78
     0
170
     0
171
     2
172
     0
173
     0
174
     0
175
     0
176
     0
177
     0
178
     0
  0
ENDTAB
  0
ENDSEC
  0
SECTION
  2
BLOCKS
  0
BLOCK
  8
0
  2
$MODEL_SPACE
 70
     0
 10
0.0
 20
0.0
 30
0.0
  3
$MODEL_SPACE
  1

  0
ENDBLK
  5
21
  8
0
  0
BLOCK
 67
     1
  8
0
  2
$PAPER_SPACE
 70
     0
 10
0.0
 20
0.0
 30
0.0
  3
$PAPER_SPACE
  1

  0
ENDBLK
  5
1D
 67
     1
  8
0
  0
ENDSEC
  0
SECTION
  2
ENTITIES
  0
POLYLINE
  5
70
  8
SDFSD
 62
   250
 66
     1
 10
0.0
 20
0.0
 30
0.0
  0
VERTEX
  5
83
  8
SDFSD
 62
   250
 10
-41.4329
 20
41.6283
 30
0.0
  0
VERTEX
  5
84
  8
SDFSD
 62
   250
 10
-41.7262
 20
41.5987
 30
0.0
  0
VERTEX
  5
85
  8
SDFSD
 62
   250
 10
-41.9993
 20
41.5139
 30
0.0
  0
VERTEX
  5
86
  8
SDFSD
 62
   250
 10
-42.2465
 20
41.3798
 30
0.0
  0
VERTEX
  5
87
  8
SDFSD
 62
   250
 10
-42.4619
 20
41.2021
 30
0.0
  0
VERTEX
  5
88
  8
SDFSD
 62
   250
 10
-42.6396
 20
40.9867
 30
0.0
  0
VERTEX
  5
89
  8
SDFSD
 62
   250
 10
-42.7737
 20
40.7395
 30
0.0
  0
VERTEX
  5
8A
  8
SDFSD
 62
   250
 10
-42.8585
 20
40.4664
 30
0.0
  0
VERTEX
  5
8B
  8
SDFSD
 62
   250
 10
-42.8881
 20
40.1731
 30
0.0
  0
VERTEX
  5
8C
  8
SDFSD
 62
   250
 10
-42.8585
 20
39.8798
 30
0.0
  0
VERTEX
  5
8D
  8
SDFSD
 62
   250
 10
-42.7737
 20
39.6067
 30
0.0
  0
VERTEX
  5
8E
  8
SDFSD
 62
   250
 10
-42.6396
 20
39.3595
 30
0.0
  0
VERTEX
  5
8F
  8
SDFSD
 62
   250
 10
-42.4619
 20
39.1441
 30
0.0
  0
VERTEX
  5
90
  8
SDFSD
 62
   250
 10
-42.2465
 20
38.9664
 30
0.0
  0
VERTEX
  5
91
  8
SDFSD
 62
   250
 10
-41.9993
 20
38.8323
 30
0.0
  0
VERTEX
  5
92
  8
SDFSD
 62
   250
 10
-41.7262
 20
38.7475
 30
0.0
  0
VERTEX
  5
93
  8
SDFSD
 62
   250
 10
-41.4329
 20
38.7179
 30
0.0
  0
VERTEX
  5
94
  8
SDFSD
 62
   250
 10
-41.1396
 20
38.7475
 30
0.0
  0
VERTEX
  5
95
  8
SDFSD
 62
   250
 10
-40.8665
 20
38.8323
 30
0.0
  0
VERTEX
  5
96
  8
SDFSD
 62
   250
 10
-40.6193
 20
38.9664
 30
0.0
  0
VERTEX
  5
97
  8
SDFSD
 62
   250
 10
-40.4039
 20
39.1441
 30
0.0
  0
VERTEX
  5
98
  8
SDFSD
 62
   250
 10
-40.2262
 20
39.3595
 30
0.0
  0
VERTEX
  5
99
  8
SDFSD
 62
   250
 10
-40.0921
 20
39.6067
 30
0.0
  0
VERTEX
  5
9A
  8
SDFSD
 62
   250
 10
-40.0073
 20
39.8798
 30
0.0
  0
VERTEX
  5
9B
  8
SDFSD
 62
   250
 10
-39.9777
 20
40.1731
 30
0.0
  0
VERTEX
  5
9C
  8
SDFSD
 62
   250
 10
-40.0073
 20
40.4664
 30
0.0
  0
VERTEX
  5
9D
  8
SDFSD
 62
   250
 10
-40.0921
 20
40.7395
 30
0.0
  0
VERTEX
  5
9E
  8
SDFSD
 62
   250
 10
-40.2262
 20
40.9867
 30
0.0
  0
VERTEX
  5
9F
  8
SDFSD
 62
   250
 10
-40.4039
 20
41.2021
 30
0.0
  0
VERTEX
  5
A0
  8
SDFSD
 62
   250
 10
-40.6193
 20
41.3798
 30
0.0
  0
VERTEX
  5
A1
  8
SDFSD
 62
   250
 10
-40.8665
 20
41.5139
 30
0.0
  0
VERTEX
  5
A2
  8
SDFSD
 62
   250
 10
-41.1396
 20
41.5987
 30
0.0
  0
VERTEX
  5
A3
  8
SDFSD
 62
   250
 10
-41.4329
 20
41.6283
 30
0.0
  0
SEQEND
  5
19F
  8
SDFSD
 62
   250
  0
POLYLINE
  5
71
  8
SDFSD
 62
   250
 66
     1
 10
0.0
 20
0.0
 30
0.0
  0
VERTEX
  5
A4
  8
SDFSD
 62
   250
 10
-80.4559
 20
31.7237
 30
0.0
  0
VERTEX
  5
A5
  8
SDFSD
 62
   250
 10
-79.0549
 20
31.7237
 30
0.0
  0
VERTEX
  5
A6
  8
SDFSD
 62
   250
 10
-78.4523
 20
31.6625
 30
0.0
  0
VERTEX
  5
A7
  8
SDFSD
 62
   250
 10
-77.8901
 20
31.487
 30
0.0
  0
VERTEX
  5
A8
  8
SDFSD
 62
   250
 10
-77.3806
 20
31.2095
 30
0.0
  0
VERTEX
  5
A9
  8
SDFSD
 62
   250
 10
-76.9362
 20
30.8424
 30
0.0
  0
VERTEX
  5
AA
  8
SDFSD
 62
   250
 10
-76.5691
 20
30.3979
 30
0.0
  0
VERTEX
  5
AB
  8
SDFSD
 62
   250
 10
-76.2916
 20
29.8885
 30
0.0
  0
VERTEX
  5
AC
  8
SDFSD
 62
   250
 10
-76.1161
 20
29.3263
 30
0.0
  0
VERTEX
  5
AD
  8
SDFSD
 62
   250
 10
-76.0549
 20
28.7237
 30
0.0
  0
VERTEX
  5
AE
  8
SDFSD
 62
   250
 10
-76.0549
 20
21.7245
 30
0.0
  0
VERTEX
  5
AF
  8
SDFSD
 62
   250
 10
-76.1161
 20
21.1219
 30
0.0
  0
VERTEX
  5
B0
  8
SDFSD
 62
   250
 10
-76.2916
 20
20.5597
 30
0.0
  0
VERTEX
  5
B1
  8
SDFSD
 62
   250
 10
-76.5691
 20
20.0503
 30
0.0
  0
VERTEX
  5
B2
  8
SDFSD
 62
   250
 10
-76.9362
 20
19.6058
 30
0.0
  0
VERTEX
  5
B3
  8
SDFSD
 62
   250
 10
-77.3807
 20
19.2387
 30
0.0
  0
VERTEX
  5
B4
  8
SDFSD
 62
   250
 10
-77.8901
 20
18.9612
 30
0.0
  0
VERTEX
  5
B5
  8
SDFSD
 62
   250
 10
-78.4523
 20
18.7857
 30
0.0
  0
VERTEX
  5
B6
  8
SDFSD
 62
   250
 10
-79.0549
 20
18.7245
 30
0.0
  0
VERTEX
  5
B7
  8
SDFSD
 62
   250
 10
-80.4559
 20
18.7245
 30
0.0
  0
VERTEX
  5
B8
  8
SDFSD
 62
   250
 10
-81.0585
 20
18.7857
 30
0.0
  0
VERTEX
  5
B9
  8
SDFSD
 62
   250
 10
-81.6207
 20
18.9612
 30
0.0
  0
VERTEX
  5
BA
  8
SDFSD
 62
   250
 10
-82.1301
 20
19.2387
 30
0.0
  0
VERTEX
  5
BB
  8
SDFSD
 62
   250
 10
-82.5746
 20
19.6058
 30
0.0
  0
VERTEX
  5
BC
  8
SDFSD
 62
   250
 10
-82.9417
 20
20.0502
 30
0.0
  0
VERTEX
  5
BD
  8
SDFSD
 62
   250
 10
-83.2192
 20
20.5597
 30
0.0
  0
VERTEX
  5
BE
  8
SDFSD
 62
   250
 10
-83.3947
 20
21.1219
 30
0.0
  0
VERTEX
  5
BF
  8
SDFSD
 62
   250
 10
-83.4559
 20
21.7245
 30
0.0
  0
VERTEX
  5
C0
  8
SDFSD
 62
   250
 10
-83.4559
 20
28.7237
 30
0.0
  0
VERTEX
  5
C1
  8
SDFSD
 62
   250
 10
-83.3947
 20
29.3263
 30
0.0
  0
VERTEX
  5
C2
  8
SDFSD
 62
   250
 10
-83.2192
 20
29.8885
 30
0.0
  0
VERTEX
  5
C3
  8
SDFSD
 62
   250
 10
-82.9417
 20
30.398
 30
0.0
  0
VERTEX
  5
C4
  8
SDFSD
 62
   250
 10
-82.5747
 20
30.8425
 30
0.0
  0
VERTEX
  5
C5
  8
SDFSD
 62
   250
 10
-82.1302
 20
31.2095
 30
0.0
  0
VERTEX
  5
C6
  8
SDFSD
 62
   250
 10
-81.6207
 20
31.487
 30
0.0
  0
VERTEX
  5
C7
  8
SDFSD
 62
   250
 10
-81.0585
 20
31.6625
 30
0.0
  0
VERTEX
  5
C8
  8
SDFSD
 62
   250
 10
-80.4559
 20
31.7237
 30
0.0
  0
SEQEND
  5
1A0
  8
SDFSD
 62
   250
  0
POLYLINE
  5
72
  8
SDFSD
 62
   250
 66
     1
 10
0.0
 20
0.0
 30
0.0
  0
VERTEX
  5
C9
  8
SDFSD
 62
   250
 10
-97.5188
 20
30.692
 30
0.0
  0
VERTEX
  5
CA
  8
SDFSD
 62
   250
 10
-91.3335
 20
30.692
 30
0.0
  0
VERTEX
  5
CB
  8
SDFSD
 62
   250
 10
-91.3335
 20
19.6247
 30
0.0
  0
VERTEX
  5
CC
  8
SDFSD
 62
   250
 10
-97.5188
 20
19.6247
 30
0.0
  0
VERTEX
  5
CD
  8
SDFSD
 62
   250
 10
-97.5188
 20
30.692
 30
0.0
  0
SEQEND
  5
1A1
  8
SDFSD
 62
   250
  0
POLYLINE
  5
73
  8
SDFSD
 62
   250
 66
     1
 10
0.0
 20
0.0
 30
0.0
  0
VERTEX
  5
CE
  8
SDFSD
 62
   250
 10
11.4525
 20
24.7607
 30
0.0
  0
VERTEX
  5
CF
  8
SDFSD
 62
   250
 10
11.4525
 20
39.3324
 30
0.0
  0
VERTEX
  5
D0
  8
SDFSD
 62
   250
 10
11.33
 20
40.5377
 30
0.0
  0
VERTEX
  5
D1
  8
SDFSD
 62
   250
 10
10.979
 20
41.6621
 30
0.0
  0
VERTEX
  5
D2
  8
SDFSD
 62
   250
 10
10.4241
 20
42.6811
 30
0.0
  0
VERTEX
  5
D3
  8
SDFSD
 62
   250
 10
9.6899
 20
43.5699
 30
0.0
  0
VERTEX
  5
D4
  8
SDFSD
 62
   250
 10
8.801
 20
44.3041
 30
0.0
  0
VERTEX
  5
D5
  8
SDFSD
 62
   250
 10
7.7821
 20
44.859
 30
0.0
  0
VERTEX
  5
D6
  8
SDFSD
 62
   250
 10
6.6577
 20
45.2099
 30
0.0
  0
VERTEX
  5
D7
  8
SDFSD
 62
   250
 10
5.4525
 20
45.3324
 30
0.0
  0
VERTEX
  5
D8
  8
SDFSD
 62
   250
 10
-106.7103
 20
45.3324
 30
0.0
  0
SEQEND
  5
1A2
  8
SDFSD
 62
   250
  0
POLYLINE
  5
74
  8
SDFSD
 62
   250
 66
     1
 10
0.0
 20
0.0
 30
0.0
  0
VERTEX
  5
D9
  8
SDFSD
 62
   250
 10
-106.7973
 20
45.2512
 30
0.0
  0
VERTEX
  5
DA
  8
SDFSD
 62
   250
 10
-106.7973
 20
28.6725
 30
0.0
  0
VERTEX
  5
DB
  8
SDFSD
 62
   250
 10
-101.7973
 20
28.6725
 30
0.0
  0
VERTEX
  5
DC
  8
SDFSD
 62
   250
 10
-101.7973
 20
21.6725
 30
0.0
  0
VERTEX
  5
DD
  8
SDFSD
 62
   250
 10
-106.7973
 20
21.6725
 30
0.0
  0
VERTEX
  5
DE
  8
SDFSD
 62
   250
 10
-106.7973
 20
5.1158
 30
0.0
  0
VERTEX
  5
DF
  8
SDFSD
 62
   250
 10
-54.5914
 20
5.1158
 30
0.0
  0
VERTEX
  5
E0
  8
SDFSD
 62
   250
 10
-51.5246
 20
5.3467
 30
0.0
  0
VERTEX
  5
E1
  8
SDFSD
 62
   250
 10
-48.6022
 20
6.017
 30
0.0
  0
VERTEX
  5
E2
  8
SDFSD
 62
   250
 10
-45.858
 20
7.0927
 30
0.0
  0
VERTEX
  5
E3
  8
SDFSD
 62
   250
 10
-43.3258
 20
8.54
 30
0.0
  0
VERTEX
  5
E4
  8
SDFSD
 62
   250
 10
-41.0395
 20
10.3251
 30
0.0
  0
VERTEX
  5
E5
  8
SDFSD
 62
   250
 10
-39.0328
 20
12.4142
 30
0.0
  0
VERTEX
  5
E6
  8
SDFSD
 62
   250
 10
-37.3397
 20
14.7735
 30
0.0
  0
VERTEX
  5
E7
  8
SDFSD
 62
   250
 10
-35.994
 20
17.369
 30
0.0
  0
VERTEX
  5
E8
  8
SDFSD
 62
   250
 10
5.4525
 20
5.1158
 30
0.0
  0
VERTEX
  5
E9
  8
SDFSD
 62
   250
 10
6.6578
 20
5.2383
 30
0.0
  0
VERTEX
  5
EA
  8
SDFSD
 62
   250
 10
7.7822
 20
5.5893
 30
0.0
  0
VERTEX
  5
EB
  8
SDFSD
 62
   250
 10
8.8012
 20
6.1441
 30
0.0
  0
VERTEX
  5
EC
  8
SDFSD
 62
   250
 10
9.69
 20
6.8783
 30
0.0
  0
VERTEX
  5
ED
  8
SDFSD
 62
   250
 10
10.4242
 20
7.7672
 30
0.0
  0
VERTEX
  5
EE
  8
SDFSD
 62
   250
 10
10.9791
 20
8.7862
 30
0.0
  0
VERTEX
  5
EF
  8
SDFSD
 62
   250
 10
11.33
 20
9.9106
 30
0.0
  0
VERTEX
  5
F0
  8
SDFSD
 62
   250
 10
11.4525
 20
11.1158
 30
0.0
  0
VERTEX
  5
F1
  8
SDFSD
 62
   250
 10
11.4525
 20
24.5607
 30
0.0
  0
SEQEND
  5
1A3
  8
SDFSD
 62
   250
  0
POLYLINE
  5
75
  8
SDFSD
 62
   250
 66
     1
 10
0.0
 20
0.0
 30
0.0
  0
VERTEX
  5
F2
  8
SDFSD
 62
   250
 10
-43.4728
 20
25.347
 30
0.0
  0
VERTEX
  5
F3
  8
SDFSD
 62
   250
 10
-43.6987
 20
27.5878
 30
0.0
  0
VERTEX
  5
F4
  8
SDFSD
 62
   250
 10
-44.3465
 20
29.6749
 30
0.0
  0
VERTEX
  5
F5
  8
SDFSD
 62
   250
 10
-45.3717
 20
31.5635
 30
0.0
  0
VERTEX
  5
F6
  8
SDFSD
 62
   250
 10
-46.7293
 20
33.2091
 30
0.0
  0
VERTEX
  5
F7
  8
SDFSD
 62
   250
 10
-48.3749
 20
34.5667
 30
0.0
  0
VERTEX
  5
F8
  8
SDFSD
 62
   250
 10
-50.2635
 20
35.5919
 30
0.0
  0
VERTEX
  5
F9
  8
SDFSD
 62
   250
 10
-52.3506
 20
36.2397
 30
0.0
  0
VERTEX
  5
FA
  8
SDFSD
 62
   250
 10
-54.5914
 20
36.4656
 30
0.0
  0
VERTEX
  5
FB
  8
SDFSD
 62
   250
 10
-56.8322
 20
36.2397
 30
0.0
  0
VERTEX
  5
FC
  8
SDFSD
 62
   250
 10
-58.9193
 20
35.5919
 30
0.0
  0
VERTEX
  5
FD
  8
SDFSD
 62
   250
 10
-60.8079
 20
34.5667
 30
0.0
  0
VERTEX
  5
FE
  8
SDFSD
 62
   250
 10
-62.4535
 20
33.2091
 30
0.0
  0
VERTEX
  5
FF
  8
SDFSD
 62
   250
 10
-63.8111
 20
31.5635
 30
0.0
  0
VERTEX
  5
100
  8
SDFSD
 62
   250
 10
-64.8363
 20
29.6749
 30
0.0
  0
VERTEX
  5
101
  8
SDFSD
 62
   250
 10
-65.4841
 20
27.5878
 30
0.0
  0
VERTEX
  5
102
  8
SDFSD
 62
   250
 10
-65.71
 20
25.347
 30
0.0
  0
VERTEX
  5
103
  8
SDFSD
 62
   250
 10
-65.4841
 20
23.1062
 30
0.0
  0
VERTEX
  5
104
  8
SDFSD
 62
   250
 10
-64.8363
 20
21.0191
 30
0.0
  0
VERTEX
  5
105
  8
SDFSD
 62
   250
 10
-63.8111
 20
19.1305
 30
0.0
  0
VERTEX
  5
106
  8
SDFSD
 62
   250
 10
-62.4535
 20
17.4849
 30
0.0
  0
VERTEX
  5
107
  8
SDFSD
 62
   250
 10
-60.8079
 20
16.1273
 30
0.0
  0
VERTEX
  5
108
  8
SDFSD
 62
   250
 10
-58.9193
 20
15.1021
 30
0.0
  0
VERTEX
  5
109
  8
SDFSD
 62
   250
 10
-56.8322
 20
14.4543
 30
0.0
  0
VERTEX
  5
10A
  8
SDFSD
 62
   250
 10
-54.5914
 20
14.2284
 30
0.0
  0
VERTEX
  5
10B
  8
SDFSD
 62
   250
 10
-52.3506
 20
14.4543
 30
0.0
  0
VERTEX
  5
10C
  8
SDFSD
 62
   250
 10
-50.2635
 20
15.1021
 30
0.0
  0
VERTEX
  5
10D
  8
SDFSD
 62
   250
 10
-48.3749
 20
16.1273
 30
0.0
  0
VERTEX
  5
10E
  8
SDFSD
 62
   250
 10
-46.7293
 20
17.4849
 30
0.0
  0
VERTEX
  5
10F
  8
SDFSD
 62
   250
 10
-45.3717
 20
19.1305
 30
0.0
  0
VERTEX
  5
110
  8
SDFSD
 62
   250
 10
-44.3465
 20
21.0191
 30
0.0
  0
VERTEX
  5
111
  8
SDFSD
 62
   250
 10
-43.6987
 20
23.1062
 30
0.0
  0
VERTEX
  5
112
  8
SDFSD
 62
   250
 10
-43.4728
 20
25.347
 30
0.0
  0
SEQEND
  5
1A4
  8
SDFSD
 62
   250
  0
POLYLINE
  5
76
  8
SDFSD
 62
   250
 66
     1
 10
0.0
 20
0.0
 30
0.0
  0
VERTEX
  5
113
  8
SDFSD
 62
   250
 10
-41.4329
 20
53.1886
 30
0.0
  0
VERTEX
  5
114
  8
SDFSD
 62
   250
 10
-41.7262
 20
53.2182
 30
0.0
  0
VERTEX
  5
115
  8
SDFSD
 62
   250
 10
-41.9993
 20
53.303
 30
0.0
  0
VERTEX
  5
116
  8
SDFSD
 62
   250
 10
-42.2465
 20
53.4371
 30
0.0
  0
VERTEX
  5
117
  8
SDFSD
 62
   250
 10
-42.4619
 20
53.6148
 30
0.0
  0
VERTEX
  5
118
  8
SDFSD
 62
   250
 10
-42.6396
 20
53.8302
 30
0.0
  0
VERTEX
  5
119
  8
SDFSD
 62
   250
 10
-42.7737
 20
54.0774
 30
0.0
  0
VERTEX
  5
11A
  8
SDFSD
 62
   250
 10
-42.8585
 20
54.3505
 30
0.0
  0
VERTEX
  5
11B
  8
SDFSD
 62
   250
 10
-42.8881
 20
54.6438
 30
0.0
  0
VERTEX
  5
11C
  8
SDFSD
 62
   250
 10
-42.8585
 20
54.9371
 30
0.0
  0
VERTEX
  5
11D
  8
SDFSD
 62
   250
 10
-42.7737
 20
55.2102
 30
0.0
  0
VERTEX
  5
11E
  8
SDFSD
 62
   250
 10
-42.6396
 20
55.4574
 30
0.0
  0
VERTEX
  5
11F
  8
SDFSD
 62
   250
 10
-42.4619
 20
55.6728
 30
0.0
  0
VERTEX
  5
120
  8
SDFSD
 62
   250
 10
-42.2465
 20
55.8505
 30
0.0
  0
VERTEX
  5
121
  8
SDFSD
 62
   250
 10
-41.9993
 20
55.9846
 30
0.0
  0
VERTEX
  5
122
  8
SDFSD
 62
   250
 10
-41.7262
 20
56.0694
 30
0.0
  0
VERTEX
  5
123
  8
SDFSD
 62
   250
 10
-41.4329
 20
56.099
 30
0.0
  0
VERTEX
  5
124
  8
SDFSD
 62
   250
 10
-41.1396
 20
56.0694
 30
0.0
  0
VERTEX
  5
125
  8
SDFSD
 62
   250
 10
-40.8665
 20
55.9846
 30
0.0
  0
VERTEX
  5
126
  8
SDFSD
 62
   250
 10
-40.6193
 20
55.8505
 30
0.0
  0
VERTEX
  5
127
  8
SDFSD
 62
   250
 10
-40.4039
 20
55.6728
 30
0.0
  0
VERTEX
  5
128
  8
SDFSD
 62
   250
 10
-40.2262
 20
55.4574
 30
0.0
  0
VERTEX
  5
129
  8
SDFSD
 62
   250
 10
-40.0921
 20
55.2102
 30
0.0
  0
VERTEX
  5
12A
  8
SDFSD
 62
   250
 10
-40.0073
 20
54.9371
 30
0.0
  0
VERTEX
  5
12B
  8
SDFSD
 62
   250
 10
-39.9777
 20
54.6438
 30
0.0
  0
VERTEX
  5
12C
  8
SDFSD
 62
   250
 10
-40.0073
 20
54.3505
 30
0.0
  0
VERTEX
  5
12D
  8
SDFSD
 62
   250
 10
-40.0921
 20
54.0774
 30
0.0
  0
VERTEX
  5
12E
  8
SDFSD
 62
   250
 10
-40.2262
 20
53.8302
 30
0.0
  0
VERTEX
  5
12F
  8
SDFSD
 62
   250
 10
-40.4039
 20
53.6148
 30
0.0
  0
VERTEX
  5
130
  8
SDFSD
 62
   250
 10
-40.6193
 20
53.4371
 30
0.0
  0
VERTEX
  5
131
  8
SDFSD
 62
   250
 10
-40.8665
 20
53.303
 30
0.0
  0
VERTEX
  5
132
  8
SDFSD
 62
   250
 10
-41.1396
 20
53.2182
 30
0.0
  0
VERTEX
  5
133
  8
SDFSD
 62
   250
 10
-41.4329
 20
53.1886
 30
0.0
  0
SEQEND
  5
1A5
  8
SDFSD
 62
   250
  0
POLYLINE
  5
77
  8
SDFSD
 62
   250
 66
     1
 10
0.0
 20
0.0
 30
0.0
  0
VERTEX
  5
134
  8
SDFSD
 62
   250
 10
-106.7972
 20
60.7528
 30
0.0
  0
VERTEX
  5
135
  8
SDFSD
 62
   250
 10
-73.4972
 20
60.7528
 30
0.0
  0
VERTEX
  5
136
  8
SDFSD
 62
   250
 10
-73.4972
 20
78.4328
 30
0.0
  0
VERTEX
  5
137
  8
SDFSD
 62
   250
 10
-106.7972
 20
78.4328
 30
0.0
  0
VERTEX
  5
138
  8
SDFSD
 62
   250
 10
-106.7975
 20
89.7011
 30
0.0
  0
VERTEX
  5
139
  8
SDFSD
 62
   250
 10
-54.5914
 20
89.7011
 30
0.0
  0
VERTEX
  5
13A
  8
SDFSD
 62
   250
 10
-51.5246
 20
89.4702
 30
0.0
  0
VERTEX
  5
13B
  8
SDFSD
 62
   250
 10
-48.6022
 20
88.7999
 30
0.0
  0
VERTEX
  5
13C
  8
SDFSD
 62
   250
 10
-45.858
 20
87.7242
 30
0.0
  0
VERTEX
  5
13D
  8
SDFSD
 62
   250
 10
-43.3258
 20
86.2769
 30
0.0
  0
VERTEX
  5
13E
  8
SDFSD
 62
   250
 10
-41.0395
 20
84.4918
 30
0.0
  0
VERTEX
  5
13F
  8
SDFSD
 62
   250
 10
-39.0328
 20
82.4027
 30
0.0
  0
VERTEX
  5
140
  8
SDFSD
 62
   250
 10
-37.3397
 20
80.0434
 30
0.0
  0
VERTEX
  5
141
  8
SDFSD
 62
   250
 10
-35.994
 20
77.4479
 30
0.0
  0
VERTEX
  5
142
  8
SDFSD
 62
   250
 10
5.4525
 20
89.7011
 30
0.0
  0
VERTEX
  5
143
  8
SDFSD
 62
   250
 10
6.6578
 20
89.5786
 30
0.0
  0
VERTEX
  5
144
  8
SDFSD
 62
   250
 10
7.7822
 20
89.2276
 30
0.0
  0
VERTEX
  5
145
  8
SDFSD
 62
   250
 10
8.8012
 20
88.6728
 30
0.0
  0
VERTEX
  5
146
  8
SDFSD
 62
   250
 10
9.69
 20
87.9386
 30
0.0
  0
VERTEX
  5
147
  8
SDFSD
 62
   250
 10
10.4242
 20
87.0497
 30
0.0
  0
VERTEX
  5
148
  8
SDFSD
 62
   250
 10
10.9791
 20
86.0307
 30
0.0
  0
VERTEX
  5
149
  8
SDFSD
 62
   250
 10
11.33
 20
84.9063
 30
0.0
  0
VERTEX
  5
14A
  8
SDFSD
 62
   250
 10
11.4525
 20
83.7011
 30
0.0
  0
VERTEX
  5
14B
  8
SDFSD
 62
   250
 10
11.4525
 20
64.9485
 30
0.0
  0
SEQEND
  5
1A6
  8
SDFSD
 62
   250
  0
POLYLINE
  5
78
  8
SDFSD
 62
   250
 66
     1
 10
0.0
 20
0.0
 30
0.0
  0
VERTEX
  5
14C
  8
SDFSD
 62
   250
 10
11.4525
 20
64.7469
 30
0.0
  0
VERTEX
  5
14D
  8
SDFSD
 62
   250
 10
11.4525
 20
55.4845
 30
0.0
  0
VERTEX
  5
14E
  8
SDFSD
 62
   250
 10
11.33
 20
54.2792
 30
0.0
  0
VERTEX
  5
14F
  8
SDFSD
 62
   250
 10
10.9791
 20
53.1548
 30
0.0
  0
VERTEX
  5
150
  8
SDFSD
 62
   250
 10
10.4242
 20
52.1359
 30
0.0
  0
VERTEX
  5
151
  8
SDFSD
 62
   250
 10
9.69
 20
51.247
 30
0.0
  0
VERTEX
  5
152
  8
SDFSD
 62
   250
 10
8.8011
 20
50.5128
 30
0.0
  0
VERTEX
  5
153
  8
SDFSD
 62
   250
 10
7.7822
 20
49.9579
 30
0.0
  0
VERTEX
  5
154
  8
SDFSD
 62
   250
 10
6.6578
 20
49.607
 30
0.0
  0
VERTEX
  5
155
  8
SDFSD
 62
   250
 10
5.4525
 20
49.4845
 30
0.0
  0
VERTEX
  5
156
  8
SDFSD
 62
   250
 10
-106.6817
 20
49.4845
 30
0.0
  0
SEQEND
  5
1A7
  8
SDFSD
 62
   250
  0
POLYLINE
  5
79
  8
SDFSD
 62
   250
 66
     1
 10
0.0
 20
0.0
 30
0.0
  0
VERTEX
  5
157
  8
SDFSD
 62
   250
 10
-106.7975
 20
49.5756
 30
0.0
  0
VERTEX
  5
158
  8
SDFSD
 62
   250
 10
-106.7972
 20
60.7528
 30
0.0
  0
SEQEND
  5
1A8
  8
SDFSD
 62
   250
  0
POLYLINE
  5
7A
  8
SDFSD
 62
   250
 66
     1
 10
0.0
 20
0.0
 30
0.0
  0
VERTEX
  5
159
  8
SDFSD
 62
   250
 10
-43.4728
 20
69.4699
 30
0.0
  0
VERTEX
  5
15A
  8
SDFSD
 62
   250
 10
-43.6987
 20
67.2291
 30
0.0
  0
VERTEX
  5
15B
  8
SDFSD
 62
   250
 10
-44.3465
 20
65.142
 30
0.0
  0
VERTEX
  5
15C
  8
SDFSD
 62
   250
 10
-45.3717
 20
63.2534
 30
0.0
  0
VERTEX
  5
15D
  8
SDFSD
 62
   250
 10
-46.7293
 20
61.6078
 30
0.0
  0
VERTEX
  5
15E
  8
SDFSD
 62
   250
 10
-48.3749
 20
60.2502
 30
0.0
  0
VERTEX
  5
15F
  8
SDFSD
 62
   250
 10
-50.2635
 20
59.225
 30
0.0
  0
VERTEX
  5
160
  8
SDFSD
 62
   250
 10
-52.3506
 20
58.5772
 30
0.0
  0
VERTEX
  5
161
  8
SDFSD
 62
   250
 10
-54.5914
 20
58.3513
 30
0.0
  0
VERTEX
  5
162
  8
SDFSD
 62
   250
 10
-56.8322
 20
58.5772
 30
0.0
  0
VERTEX
  5
163
  8
SDFSD
 62
   250
 10
-58.9193
 20
59.225
 30
0.0
  0
VERTEX
  5
164
  8
SDFSD
 62
   250
 10
-60.8079
 20
60.2502
 30
0.0
  0
VERTEX
  5
165
  8
SDFSD
 62
   250
 10
-62.4535
 20
61.6078
 30
0.0
  0
VERTEX
  5
166
  8
SDFSD
 62
   250
 10
-63.8111
 20
63.2534
 30
0.0
  0
VERTEX
  5
167
  8
SDFSD
 62
   250
 10
-64.8363
 20
65.142
 30
0.0
  0
VERTEX
  5
168
  8
SDFSD
 62
   250
 10
-65.4841
 20
67.2291
 30
0.0
  0
VERTEX
  5
169
  8
SDFSD
 62
   250
 10
-65.71
 20
69.4699
 30
0.0
  0
VERTEX
  5
16A
  8
SDFSD
 62
   250
 10
-65.4841
 20
71.7107
 30
0.0
  0
VERTEX
  5
16B
  8
SDFSD
 62
   250
 10
-64.8363
 20
73.7978
 30
0.0
  0
VERTEX
  5
16C
  8
SDFSD
 62
   250
 10
-63.8111
 20
75.6864
 30
0.0
  0
VERTEX
  5
16D
  8
SDFSD
 62
   250
 10
-62.4535
 20
77.332
 30
0.0
  0
VERTEX
  5
16E
  8
SDFSD
 62
   250
 10
-60.8079
 20
78.6896
 30
0.0
  0
VERTEX
  5
16F
  8
SDFSD
 62
   250
 10
-58.9193
 20
79.7148
 30
0.0
  0
VERTEX
  5
170
  8
SDFSD
 62
   250
 10
-56.8322
 20
80.3626
 30
0.0
  0
VERTEX
  5
171
  8
SDFSD
 62
   250
 10
-54.5914
 20
80.5885
 30
0.0
  0
VERTEX
  5
172
  8
SDFSD
 62
   250
 10
-52.3506
 20
80.3626
 30
0.0
  0
VERTEX
  5
173
  8
SDFSD
 62
   250
 10
-50.2635
 20
79.7148
 30
0.0
  0
VERTEX
  5
174
  8
SDFSD
 62
   250
 10
-48.3749
 20
78.6896
 30
0.0
  0
VERTEX
  5
175
  8
SDFSD
 62
   250
 10
-46.7293
 20
77.332
 30
0.0
  0
VERTEX
  5
176
  8
SDFSD
 62
   250
 10
-45.3717
 20
75.6864
 30
0.0
  0
VERTEX
  5
177
  8
SDFSD
 62
   250
 10
-44.3465
 20
73.7978
 30
0.0
  0
VERTEX
  5
178
  8
SDFSD
 62
   250
 10
-43.6987
 20
71.7107
 30
0.0
  0
VERTEX
  5
179
  8
SDFSD
 62
   250
 10
-43.4728
 20
69.4699
 30
0.0
  0
SEQEND
  5
1A9
  8
SDFSD
 62
   250
  0
POLYLINE
  5
7B
  8
SDFSD
 62
   250
 66
     1
 10
0.0
 20
0.0
 30
0.0
 70
     1
  0
VERTEX
  5
17A
  8
SDFSD
 62
   250
 10
-69.611
 20
72.1459
 30
0.0
  0
VERTEX
  5
17B
  8
SDFSD
 62
   250
 10
-68.7006
 20
72.1459
 30
0.0
  0
VERTEX
  5
17C
  8
SDFSD
 62
   250
 10
-68.4997
 20
72.1255
 30
0.0
  0
VERTEX
  5
17D
  8
SDFSD
 62
   250
 10
-68.3123
 20
72.067
 30
0.0
  0
VERTEX
  5
17E
  8
SDFSD
 62
   250
 10
-68.1425
 20
71.9745
 30
0.0
  0
VERTEX
  5
17F
  8
SDFSD
 62
   250
 10
-67.9943
 20
71.8522
 30
0.0
  0
VERTEX
  5
180
  8
SDFSD
 62
   250
 10
-67.872
 20
71.704
 30
0.0
  0
VERTEX
  5
181
  8
SDFSD
 62
   250
 10
-67.7795
 20
71.5342
 30
0.0
  0
VERTEX
  5
182
  8
SDFSD
 62
   250
 10
-67.721
 20
71.3468
 30
0.0
  0
VERTEX
  5
183
  8
SDFSD
 62
   250
 10
-67.7006
 20
71.1459
 30
0.0
  0
VERTEX
  5
184
  8
SDFSD
 62
   250
 10
-67.7006
 20
67.794
 30
0.0
  0
VERTEX
  5
185
  8
SDFSD
 62
   250
 10
-67.721
 20
67.5931
 30
0.0
  0
VERTEX
  5
186
  8
SDFSD
 62
   250
 10
-67.7795
 20
67.4057
 30
0.0
  0
VERTEX
  5
187
  8
SDFSD
 62
   250
 10
-67.872
 20
67.2359
 30
0.0
  0
VERTEX
  5
188
  8
SDFSD
 62
   250
 10
-67.9943
 20
67.0878
 30
0.0
  0
VERTEX
  5
189
  8
SDFSD
 62
   250
 10
-68.1425
 20
66.9654
 30
0.0
  0
VERTEX
  5
18A
  8
SDFSD
 62
   250
 10
-68.3123
 20
66.8729
 30
0.0
  0
VERTEX
  5
18B
  8
SDFSD
 62
   250
 10
-68.4997
 20
66.8144
 30
0.0
  0
VERTEX
  5
18C
  8
SDFSD
 62
   250
 10
-68.7006
 20
66.794
 30
0.0
  0
VERTEX
  5
18D
  8
SDFSD
 62
   250
 10
-69.611
 20
66.794
 30
0.0
  0
VERTEX
  5
18E
  8
SDFSD
 62
   250
 10
-69.8119
 20
66.8144
 30
0.0
  0
VERTEX
  5
18F
  8
SDFSD
 62
   250
 10
-69.9993
 20
66.8729
 30
0.0
  0
VERTEX
  5
190
  8
SDFSD
 62
   250
 10
-70.1691
 20
66.9654
 30
0.0
  0
VERTEX
  5
191
  8
SDFSD
 62
   250
 10
-70.3173
 20
67.0878
 30
0.0
  0
VERTEX
  5
192
  8
SDFSD
 62
   250
 10
-70.4396
 20
67.2359
 30
0.0
  0
VERTEX
  5
193
  8
SDFSD
 62
   250
 10
-70.5321
 20
67.4057
 30
0.0
  0
VERTEX
  5
194
  8
SDFSD
 62
   250
 10
-70.5906
 20
67.5931
 30
0.0
  0
VERTEX
  5
195
  8
SDFSD
 62
   250
 10
-70.611
 20
67.794
 30
0.0
  0
VERTEX
  5
196
  8
SDFSD
 62
   250
 10
-70.611
 20
71.1459
 30
0.0
  0
VERTEX
  5
197
  8
SDFSD
 62
   250
 10
-70.5906
 20
71.3468
 30
0.0
  0
VERTEX
  5
198
  8
SDFSD
 62
   250
 10
-70.5321
 20
71.5342
 30
0.0
  0
VERTEX
  5
199
  8
SDFSD
 62
   250
 10
-70.4396
 20
71.704
 30
0.0
  0
VERTEX
  5
19A
  8
SDFSD
 62
   250
 10
-70.3173
 20
71.8522
 30
0.0
  0
VERTEX
  5
19B
  8
SDFSD
 62
   250
 10
-70.1691
 20
71.9745
 30
0.0
  0
VERTEX
  5
19C
  8
SDFSD
 62
   250
 10
-69.9993
 20
72.067
 30
0.0
  0
VERTEX
  5
19D
  8
SDFSD
 62
   250
 10
-69.8119
 20
72.1255
 30
0.0
  0
VERTEX
  5
19E
  8
SDFSD
 62
   250
 10
-69.611
 20
72.1459
 30
0.0
  0
SEQEND
  5
1AA
  8
SDFSD
 62
   250
  0
ENDSEC
  0
EOF
