  0
SECTION
  2
HEADER
  9
$ACADVER
  1
AC1009
  9
$DWGCODEPAGE
  3
ansi_1252
  9
$INSBASE
 10
0.0
 20
0.0
 30
0.0
  9
$EXTMIN
 10
-128.5858
 20
7.4168
 30
0.0
  9
$EXTMAX
 10
11.4904
 20
89.7393
 30
0.0
  9
$LIMMIN
 10
0.0
 20
0.0
  9
$LIMMAX
 10
12.0
 20
9.0
  9
$ORTHOMODE
 70
     0
  9
$REGENMODE
 70
     1
  9
$FILLMODE
 70
     1
  9
$QTEXTMODE
 70
     0
  9
$MIRRTEXT
 70
     1
  9
$DRAGMODE
 70
     2
  9
$LTSCALE
 40
1.0
  9
$OSMODE
 70
    37
  9
$ATTMODE
 70
     1
  9
$TEXTSIZE
 40
0.2
  9
$TRACEWID
 40
0.05
  9
$TEXTSTYLE
  7
STANDARD
  9
$CLAYER
  8
0
  9
$CELTYPE
  6
BYLAYER
  9
$CECOLOR
 62
   256
  9
$DIMSCALE
 40
1.0
  9
$DIMASZ
 40
0.18
  9
$DIMEXO
 40
0.0625
  9
$DIMDLI
 40
0.38
  9
$DIMRND
 40
0.0
  9
$DIMDLE
 40
0.0
  9
$DIMEXE
 40
0.18
  9
$DIMTP
 40
0.0
  9
$DIMTM
 40
0.0
  9
$DIMTXT
 40
0.18
  9
$DIMCEN
 40
0.09
  9
$DIMTSZ
 40
0.0
  9
$DIMTOL
 70
     0
  9
$DIMLIM
 70
     0
  9
$DIMTIH
 70
     1
  9
$DIMTOH
 70
     1
  9
$DIMSE1
 70
     0
  9
$DIMSE2
 70
     0
  9
$DIMTAD
 70
     0
  9
$DIMZIN
 70
     0
  9
$DIMBLK
  1

  9
$DIMASO
 70
     1
  9
$DIMSHO
 70
     1
  9
$DIMPOST
  1

  9
$DIMAPOST
  1

  9
$DIMALT
 70
     0
  9
$DIMALTD
 70
     2
  9
$DIMALTF
 40
25.4
  9
$DIMLFAC
 40
1.0
  9
$DIMTOFL
 70
     0
  9
$DIMTVP
 40
0.0
  9
$DIMTIX
 70
     0
  9
$DIMSOXD
 70
     0
  9
$DIMSAH
 70
     0
  9
$DIMBLK1
  1

  9
$DIMBLK2
  1

  9
$DIMSTYLE
  2
STANDARD
  9
$DIMCLRD
 70
     0
  9
$DIMCLRE
 70
     0
  9
$DIMCLRT
 70
     0
  9
$DIMTFAC
 40
1.0
  9
$DIMGAP
 40
0.09
  9
$LUNITS
 70
     2
  9
$LUPREC
 70
     4
  9
$SKETCHINC
 40
0.1
  9
$FILLETRAD
 40
0.5
  9
$AUNITS
 70
     0
  9
$AUPREC
 70
     0
  9
$MENU
  1
.
  9
$ELEVATION
 40
0.0
  9
$PELEVATION
 40
0.0
  9
$THICKNESS
 40
0.0
  9
$LIMCHECK
 70
     0
  9
$CHAMFERA
 40
0.0
  9
$CHAMFERB
 40
0.0
  9
$SKPOLY
 70
     0
  9
$TDCREATE
 40
2457927.884524664
  9
$TDUPDATE
 40
2457927.884524664
  9
$TDINDWG
 40
0.0000000116
  9
$TDUSRTIMER
 40
0.0000000116
  9
$USRTIMER
 70
     1
  9
$ANGBASE
 50
0.0
  9
$ANGDIR
 70
     0
  9
$PDMODE
 70
     0
  9
$PDSIZE
 40
0.0
  9
$PLINEWID
 40
0.0
  9
$COORDS
 70
     1
  9
$SPLFRAME
 70
     0
  9
$SPLINETYPE
 70
     6
  9
$SPLINESEGS
 70
     8
  9
$ATTDIA
 70
     0
  9
$ATTREQ
 70
     1
  9
$HANDLING
 70
     1
  9
$HANDSEED
  5
172
  9
$SURFTAB1
 70
     6
  9
$SURFTAB2
 70
     6
  9
$SURFTYPE
 70
     6
  9
$SURFU
 70
     6
  9
$SURFV
 70
     6
  9
$UCSNAME
  2

  9
$UCSORG
 10
0.0
 20
0.0
 30
0.0
  9
$UCSXDIR
 10
1.0
 20
0.0
 30
0.0
  9
$UCSYDIR
 10
0.0
 20
1.0
 30
0.0
  9
$PUCSNAME
  2

  9
$PUCSORG
 10
0.0
 20
0.0
 30
0.0
  9
$PUCSXDIR
 10
1.0
 20
0.0
 30
0.0
  9
$PUCSYDIR
 10
0.0
 20
1.0
 30
0.0
  9
$USERI1
 70
     0
  9
$USERI2
 70
     0
  9
$USERI3
 70
     0
  9
$USERI4
 70
     0
  9
$USERI5
 70
     0
  9
$USERR1
 40
0.0
  9
$USERR2
 40
0.0
  9
$USERR3
 40
0.0
  9
$USERR4
 40
0.0
  9
$USERR5
 40
0.0
  9
$WORLDVIEW
 70
     1
  9
$SHADEDGE
 70
     3
  9
$SHADEDIF
 70
    70
  9
$TILEMODE
 70
     1
  9
$MAXACTVP
 70
    64
  9
$PLIMCHECK
 70
     0
  9
$PEXTMIN
 10
1.000000000000000E+20
 20
1.000000000000000E+20
 30
1.000000000000000E+20
  9
$PEXTMAX
 10
-1.000000000000000E+20
 20
-1.000000000000000E+20
 30
-1.000000000000000E+20
  9
$PLIMMIN
 10
0.0
 20
0.0
  9
$PLIMMAX
 10
12.0
 20
9.0
  9
$UNITMODE
 70
     0
  9
$VISRETAIN
 70
     1
  9
$PLINEGEN
 70
     0
  9
$PSLTSCALE
 70
     1
  0
ENDSEC
  0
SECTION
  2
TABLES
  0
TABLE
  2
VPORT
 70
     1
  0
VPORT
  2
*ACTIVE
 70
     0
 10
0.0
 20
0.0
 11
1.0
 21
1.0
 12
10.42990654205607
 22
4.5
 13
0.0
 23
0.0
 14
0.5
 24
0.5
 15
0.5
 25
0.5
 16
0.0
 26
0.0
 36
1.0
 17
0.0
 27
0.0
 37
0.0
 40
9.0
 41
1.972972972850329
 42
50.0
 43
0.0
 44
0.0
 50
0.0
 51
0.0
 71
     0
 72
   100
 73
     1
 74
     3
 75
     0
 76
     0
 77
     0
 78
     0
  0
ENDTAB
  0
TABLE
  2
LTYPE
 70
     1
  0
LTYPE
  2
CONTINUOUS
 70
     0
  3
Solid line
 72
    65
 73
     0
 40
0.0
  0
ENDTAB
  0
TABLE
  2
LAYER
 70
     2
  0
LAYER
  2
0
 70
     0
 62
     7
  6
CONTINUOUS
  0
LAYER
  2
LAYER_1
 70
     0
 62
     7
  6
CONTINUOUS
  0
ENDTAB
  0
TABLE
  2
STYLE
 70
     1
  0
STYLE
  2
STANDARD
 70
     0
 40
0.0
 41
1.0
 50
0.0
 71
     0
 42
0.2
  3
txt
  4

  0
ENDTAB
  0
TABLE
  2
VIEW
 70
     0
  0
ENDTAB
  0
TABLE
  2
UCS
 70
     0
  0
ENDTAB
  0
TABLE
  2
APPID
 70
     2
  0
APPID
  2
ACAD
 70
     0
  0
APPID
  2
ODA
 70
     0
  0
ENDTAB
  0
TABLE
  2
DIMSTYLE
 70
     1
  0
DIMSTYLE
  2
STANDARD
 70
     0
  3

  4

  5

  6

  7

 40
1.0
 41
0.18
 42
0.0625
 43
0.38
 44
0.18
 45
0.0
 46
0.0
 47
0.0
 48
0.0
140
0.18
141
0.09
142
0.0
143
25.4
144
1.0
145
0.0
146
1.0
147
0.09
 71
     0
 72
     0
 73
     1
 74
     1
 75
     0
 76
     0
 77
     0
 78
     0
170
     0
171
     2
172
     0
173
     0
174
     0
175
     0
176
     0
177
     0
178
     0
  0
ENDTAB
  0
ENDSEC
  0
SECTION
  2
BLOCKS
  0
BLOCK
  8
0
  2
$MODEL_SPACE
 70
     0
 10
0.0
 20
0.0
 30
0.0
  3
$MODEL_SPACE
  1

  0
ENDBLK
  5
21
  8
0
  0
BLOCK
 67
     1
  8
0
  2
$PAPER_SPACE
 70
     0
 10
0.0
 20
0.0
 30
0.0
  3
$PAPER_SPACE
  1

  0
ENDBLK
  5
1D
 67
     1
  8
0
  0
ENDSEC
  0
SECTION
  2
ENTITIES
  0
POLYLINE
  5
70
  8
LAYER_1
 62
   250
 66
     1
 10
0.0
 20
0.0
 30
0.0
 70
     1
  0
VERTEX
  5
7E
  8
LAYER_1
 62
   250
 10
-81.4623
 20
85.9971
 30
0.0
  0
VERTEX
  5
7F
  8
LAYER_1
 62
   250
 10
-81.169
 20
85.9675
 30
0.0
  0
VERTEX
  5
80
  8
LAYER_1
 62
   250
 10
-80.8959
 20
85.8827
 30
0.0
  0
VERTEX
  5
81
  8
LAYER_1
 62
   250
 10
-80.6487
 20
85.7486
 30
0.0
  0
VERTEX
  5
82
  8
LAYER_1
 62
   250
 10
-80.4333
 20
85.5709
 30
0.0
  0
VERTEX
  5
83
  8
LAYER_1
 62
   250
 10
-80.2556
 20
85.3555
 30
0.0
  0
VERTEX
  5
84
  8
LAYER_1
 62
   250
 10
-80.1215
 20
85.1083
 30
0.0
  0
VERTEX
  5
85
  8
LAYER_1
 62
   250
 10
-80.0367
 20
84.8352
 30
0.0
  0
VERTEX
  5
86
  8
LAYER_1
 62
   250
 10
-80.0071
 20
84.5419
 30
0.0
  0
VERTEX
  5
87
  8
LAYER_1
 62
   250
 10
-80.0367
 20
84.2486
 30
0.0
  0
VERTEX
  5
88
  8
LAYER_1
 62
   250
 10
-80.1215
 20
83.9755
 30
0.0
  0
VERTEX
  5
89
  8
LAYER_1
 62
   250
 10
-80.2556
 20
83.7283
 30
0.0
  0
VERTEX
  5
8A
  8
LAYER_1
 62
   250
 10
-80.4333
 20
83.5129
 30
0.0
  0
VERTEX
  5
8B
  8
LAYER_1
 62
   250
 10
-80.6487
 20
83.3352
 30
0.0
  0
VERTEX
  5
8C
  8
LAYER_1
 62
   250
 10
-80.8959
 20
83.2011
 30
0.0
  0
VERTEX
  5
8D
  8
LAYER_1
 62
   250
 10
-81.169
 20
83.1163
 30
0.0
  0
VERTEX
  5
8E
  8
LAYER_1
 62
   250
 10
-81.4623
 20
83.0867
 30
0.0
  0
VERTEX
  5
8F
  8
LAYER_1
 62
   250
 10
-81.7556
 20
83.1163
 30
0.0
  0
VERTEX
  5
90
  8
LAYER_1
 62
   250
 10
-82.0287
 20
83.2011
 30
0.0
  0
VERTEX
  5
91
  8
LAYER_1
 62
   250
 10
-82.2759
 20
83.3352
 30
0.0
  0
VERTEX
  5
92
  8
LAYER_1
 62
   250
 10
-82.4913
 20
83.5129
 30
0.0
  0
VERTEX
  5
93
  8
LAYER_1
 62
   250
 10
-82.669
 20
83.7283
 30
0.0
  0
VERTEX
  5
94
  8
LAYER_1
 62
   250
 10
-82.8031
 20
83.9755
 30
0.0
  0
VERTEX
  5
95
  8
LAYER_1
 62
   250
 10
-82.8879
 20
84.2486
 30
0.0
  0
VERTEX
  5
96
  8
LAYER_1
 62
   250
 10
-82.9175
 20
84.5419
 30
0.0
  0
VERTEX
  5
97
  8
LAYER_1
 62
   250
 10
-82.8879
 20
84.8352
 30
0.0
  0
VERTEX
  5
98
  8
LAYER_1
 62
   250
 10
-82.8031
 20
85.1083
 30
0.0
  0
VERTEX
  5
99
  8
LAYER_1
 62
   250
 10
-82.669
 20
85.3555
 30
0.0
  0
VERTEX
  5
9A
  8
LAYER_1
 62
   250
 10
-82.4913
 20
85.5709
 30
0.0
  0
VERTEX
  5
9B
  8
LAYER_1
 62
   250
 10
-82.2759
 20
85.7486
 30
0.0
  0
VERTEX
  5
9C
  8
LAYER_1
 62
   250
 10
-82.0287
 20
85.8827
 30
0.0
  0
VERTEX
  5
9D
  8
LAYER_1
 62
   250
 10
-81.7556
 20
85.9675
 30
0.0
  0
VERTEX
  5
9E
  8
LAYER_1
 62
   250
 10
-81.4623
 20
85.9971
 30
0.0
  0
SEQEND
  5
16B
  8
LAYER_1
 62
   250
  0
POLYLINE
  5
71
  8
LAYER_1
 62
   250
 66
     1
 10
0.0
 20
0.0
 30
0.0
 70
     1
  0
VERTEX
  5
9F
  8
LAYER_1
 62
   250
 10
-38.5477
 20
89.7012
 30
0.0
  0
VERTEX
  5
A0
  8
LAYER_1
 62
   250
 10
11.4523
 20
89.7012
 30
0.0
  0
VERTEX
  5
A1
  8
LAYER_1
 62
   250
 10
11.4523
 20
73.0413
 30
0.0
  0
VERTEX
  5
A2
  8
LAYER_1
 62
   250
 10
1.4523
 20
73.0413
 30
0.0
  0
VERTEX
  5
A3
  8
LAYER_1
 62
   250
 10
1.4523
 20
66.0413
 30
0.0
  0
VERTEX
  5
A4
  8
LAYER_1
 62
   250
 10
11.4523
 20
66.0413
 30
0.0
  0
VERTEX
  5
A5
  8
LAYER_1
 62
   250
 10
11.4523
 20
49.4846
 30
0.0
  0
VERTEX
  5
A6
  8
LAYER_1
 62
   250
 10
-38.5477
 20
49.4846
 30
0.0
  0
VERTEX
  5
A7
  8
LAYER_1
 62
   250
 10
-62.5038
 20
49.4846
 30
0.0
  0
VERTEX
  5
A8
  8
LAYER_1
 62
   250
 10
-65.5706
 20
49.7155
 30
0.0
  0
VERTEX
  5
A9
  8
LAYER_1
 62
   250
 10
-68.493
 20
50.3858
 30
0.0
  0
VERTEX
  5
AA
  8
LAYER_1
 62
   250
 10
-71.2372
 20
51.4615
 30
0.0
  0
VERTEX
  5
AB
  8
LAYER_1
 62
   250
 10
-73.7694
 20
52.9088
 30
0.0
  0
VERTEX
  5
AC
  8
LAYER_1
 62
   250
 10
-76.0557
 20
54.6939
 30
0.0
  0
VERTEX
  5
AD
  8
LAYER_1
 62
   250
 10
-78.0624
 20
56.783
 30
0.0
  0
VERTEX
  5
AE
  8
LAYER_1
 62
   250
 10
-79.7555
 20
59.1423
 30
0.0
  0
VERTEX
  5
AF
  8
LAYER_1
 62
   250
 10
-81.1012
 20
61.7378
 30
0.0
  0
VERTEX
  5
B0
  8
LAYER_1
 62
   250
 10
-122.5477
 20
49.4846
 30
0.0
  0
VERTEX
  5
B1
  8
LAYER_1
 62
   250
 10
-123.753
 20
49.6071
 30
0.0
  0
VERTEX
  5
B2
  8
LAYER_1
 62
   250
 10
-124.8774
 20
49.9581
 30
0.0
  0
VERTEX
  5
B3
  8
LAYER_1
 62
   250
 10
-125.8964
 20
50.5129
 30
0.0
  0
VERTEX
  5
B4
  8
LAYER_1
 62
   250
 10
-126.7852
 20
51.2471
 30
0.0
  0
VERTEX
  5
B5
  8
LAYER_1
 62
   250
 10
-127.5194
 20
52.136
 30
0.0
  0
VERTEX
  5
B6
  8
LAYER_1
 62
   250
 10
-128.0743
 20
53.155
 30
0.0
  0
VERTEX
  5
B7
  8
LAYER_1
 62
   250
 10
-128.4252
 20
54.2794
 30
0.0
  0
VERTEX
  5
B8
  8
LAYER_1
 62
   250
 10
-128.5477
 20
55.4846
 30
0.0
  0
VERTEX
  5
B9
  8
LAYER_1
 62
   250
 10
-128.5477
 20
83.7012
 30
0.0
  0
VERTEX
  5
BA
  8
LAYER_1
 62
   250
 10
-128.4252
 20
84.9065
 30
0.0
  0
VERTEX
  5
BB
  8
LAYER_1
 62
   250
 10
-128.0743
 20
86.0309
 30
0.0
  0
VERTEX
  5
BC
  8
LAYER_1
 62
   250
 10
-127.5194
 20
87.0499
 30
0.0
  0
VERTEX
  5
BD
  8
LAYER_1
 62
   250
 10
-126.7852
 20
87.9387
 30
0.0
  0
VERTEX
  5
BE
  8
LAYER_1
 62
   250
 10
-125.8964
 20
88.6729
 30
0.0
  0
VERTEX
  5
BF
  8
LAYER_1
 62
   250
 10
-124.8774
 20
89.2278
 30
0.0
  0
VERTEX
  5
C0
  8
LAYER_1
 62
   250
 10
-123.753
 20
89.5787
 30
0.0
  0
VERTEX
  5
C1
  8
LAYER_1
 62
   250
 10
-122.5477
 20
89.7012
 30
0.0
  0
VERTEX
  5
C2
  8
LAYER_1
 62
   250
 10
-38.5477
 20
89.7012
 30
0.0
  0
SEQEND
  5
16C
  8
LAYER_1
 62
   250
  0
POLYLINE
  5
72
  8
LAYER_1
 62
   250
 66
     1
 10
0.0
 20
0.0
 30
0.0
 70
     1
  0
VERTEX
  5
C3
  8
LAYER_1
 62
   250
 10
-73.6224
 20
69.7158
 30
0.0
  0
VERTEX
  5
C4
  8
LAYER_1
 62
   250
 10
-73.3965
 20
71.9566
 30
0.0
  0
VERTEX
  5
C5
  8
LAYER_1
 62
   250
 10
-72.7487
 20
74.0437
 30
0.0
  0
VERTEX
  5
C6
  8
LAYER_1
 62
   250
 10
-71.7235
 20
75.9323
 30
0.0
  0
VERTEX
  5
C7
  8
LAYER_1
 62
   250
 10
-70.3659
 20
77.5779
 30
0.0
  0
VERTEX
  5
C8
  8
LAYER_1
 62
   250
 10
-68.7203
 20
78.9355
 30
0.0
  0
VERTEX
  5
C9
  8
LAYER_1
 62
   250
 10
-66.8317
 20
79.9607
 30
0.0
  0
VERTEX
  5
CA
  8
LAYER_1
 62
   250
 10
-64.7446
 20
80.6085
 30
0.0
  0
VERTEX
  5
CB
  8
LAYER_1
 62
   250
 10
-62.5038
 20
80.8344
 30
0.0
  0
VERTEX
  5
CC
  8
LAYER_1
 62
   250
 10
-60.263
 20
80.6085
 30
0.0
  0
VERTEX
  5
CD
  8
LAYER_1
 62
   250
 10
-58.1759
 20
79.9607
 30
0.0
  0
VERTEX
  5
CE
  8
LAYER_1
 62
   250
 10
-56.2873
 20
78.9355
 30
0.0
  0
VERTEX
  5
CF
  8
LAYER_1
 62
   250
 10
-54.6417
 20
77.5779
 30
0.0
  0
VERTEX
  5
D0
  8
LAYER_1
 62
   250
 10
-53.2841
 20
75.9323
 30
0.0
  0
VERTEX
  5
D1
  8
LAYER_1
 62
   250
 10
-52.2589
 20
74.0437
 30
0.0
  0
VERTEX
  5
D2
  8
LAYER_1
 62
   250
 10
-51.6111
 20
71.9566
 30
0.0
  0
VERTEX
  5
D3
  8
LAYER_1
 62
   250
 10
-51.3852
 20
69.7158
 30
0.0
  0
VERTEX
  5
D4
  8
LAYER_1
 62
   250
 10
-51.6111
 20
67.475
 30
0.0
  0
VERTEX
  5
D5
  8
LAYER_1
 62
   250
 10
-52.2589
 20
65.3879
 30
0.0
  0
VERTEX
  5
D6
  8
LAYER_1
 62
   250
 10
-53.2841
 20
63.4993
 30
0.0
  0
VERTEX
  5
D7
  8
LAYER_1
 62
   250
 10
-54.6417
 20
61.8537
 30
0.0
  0
VERTEX
  5
D8
  8
LAYER_1
 62
   250
 10
-56.2873
 20
60.4961
 30
0.0
  0
VERTEX
  5
D9
  8
LAYER_1
 62
   250
 10
-58.1759
 20
59.4709
 30
0.0
  0
VERTEX
  5
DA
  8
LAYER_1
 62
   250
 10
-60.263
 20
58.8231
 30
0.0
  0
VERTEX
  5
DB
  8
LAYER_1
 62
   250
 10
-62.5038
 20
58.5972
 30
0.0
  0
VERTEX
  5
DC
  8
LAYER_1
 62
   250
 10
-64.7446
 20
58.8231
 30
0.0
  0
VERTEX
  5
DD
  8
LAYER_1
 62
   250
 10
-66.8317
 20
59.4709
 30
0.0
  0
VERTEX
  5
DE
  8
LAYER_1
 62
   250
 10
-68.7203
 20
60.4961
 30
0.0
  0
VERTEX
  5
DF
  8
LAYER_1
 62
   250
 10
-70.3659
 20
61.8537
 30
0.0
  0
VERTEX
  5
E0
  8
LAYER_1
 62
   250
 10
-71.7235
 20
63.4993
 30
0.0
  0
VERTEX
  5
E1
  8
LAYER_1
 62
   250
 10
-72.7487
 20
65.3879
 30
0.0
  0
VERTEX
  5
E2
  8
LAYER_1
 62
   250
 10
-73.3965
 20
67.475
 30
0.0
  0
VERTEX
  5
E3
  8
LAYER_1
 62
   250
 10
-73.6224
 20
69.7158
 30
0.0
  0
SEQEND
  5
16D
  8
LAYER_1
 62
   250
  0
POLYLINE
  5
73
  8
LAYER_1
 62
   250
 66
     1
 10
0.0
 20
0.0
 30
0.0
 70
     1
  0
VERTEX
  5
E4
  8
LAYER_1
 62
   250
 10
-81.4623
 20
43.9674
 30
0.0
  0
VERTEX
  5
E5
  8
LAYER_1
 62
   250
 10
-81.169
 20
43.9378
 30
0.0
  0
VERTEX
  5
E6
  8
LAYER_1
 62
   250
 10
-80.8959
 20
43.853
 30
0.0
  0
VERTEX
  5
E7
  8
LAYER_1
 62
   250
 10
-80.6487
 20
43.7189
 30
0.0
  0
VERTEX
  5
E8
  8
LAYER_1
 62
   250
 10
-80.4333
 20
43.5412
 30
0.0
  0
VERTEX
  5
E9
  8
LAYER_1
 62
   250
 10
-80.2556
 20
43.3258
 30
0.0
  0
VERTEX
  5
EA
  8
LAYER_1
 62
   250
 10
-80.1215
 20
43.0786
 30
0.0
  0
VERTEX
  5
EB
  8
LAYER_1
 62
   250
 10
-80.0367
 20
42.8055
 30
0.0
  0
VERTEX
  5
EC
  8
LAYER_1
 62
   250
 10
-80.0071
 20
42.5122
 30
0.0
  0
VERTEX
  5
ED
  8
LAYER_1
 62
   250
 10
-80.0367
 20
42.2189
 30
0.0
  0
VERTEX
  5
EE
  8
LAYER_1
 62
   250
 10
-80.1215
 20
41.9458
 30
0.0
  0
VERTEX
  5
EF
  8
LAYER_1
 62
   250
 10
-80.2556
 20
41.6986
 30
0.0
  0
VERTEX
  5
F0
  8
LAYER_1
 62
   250
 10
-80.4333
 20
41.4832
 30
0.0
  0
VERTEX
  5
F1
  8
LAYER_1
 62
   250
 10
-80.6487
 20
41.3055
 30
0.0
  0
VERTEX
  5
F2
  8
LAYER_1
 62
   250
 10
-80.8959
 20
41.1714
 30
0.0
  0
VERTEX
  5
F3
  8
LAYER_1
 62
   250
 10
-81.169
 20
41.0866
 30
0.0
  0
VERTEX
  5
F4
  8
LAYER_1
 62
   250
 10
-81.4623
 20
41.057
 30
0.0
  0
VERTEX
  5
F5
  8
LAYER_1
 62
   250
 10
-81.7556
 20
41.0866
 30
0.0
  0
VERTEX
  5
F6
  8
LAYER_1
 62
   250
 10
-82.0287
 20
41.1714
 30
0.0
  0
VERTEX
  5
F7
  8
LAYER_1
 62
   250
 10
-82.2759
 20
41.3055
 30
0.0
  0
VERTEX
  5
F8
  8
LAYER_1
 62
   250
 10
-82.4913
 20
41.4832
 30
0.0
  0
VERTEX
  5
F9
  8
LAYER_1
 62
   250
 10
-82.669
 20
41.6986
 30
0.0
  0
VERTEX
  5
FA
  8
LAYER_1
 62
   250
 10
-82.8031
 20
41.9458
 30
0.0
  0
VERTEX
  5
FB
  8
LAYER_1
 62
   250
 10
-82.8879
 20
42.2189
 30
0.0
  0
VERTEX
  5
FC
  8
LAYER_1
 62
   250
 10
-82.9175
 20
42.5122
 30
0.0
  0
VERTEX
  5
FD
  8
LAYER_1
 62
   250
 10
-82.8879
 20
42.8055
 30
0.0
  0
VERTEX
  5
FE
  8
LAYER_1
 62
   250
 10
-82.8031
 20
43.0786
 30
0.0
  0
VERTEX
  5
FF
  8
LAYER_1
 62
   250
 10
-82.669
 20
43.3258
 30
0.0
  0
VERTEX
  5
100
  8
LAYER_1
 62
   250
 10
-82.4913
 20
43.5412
 30
0.0
  0
VERTEX
  5
101
  8
LAYER_1
 62
   250
 10
-82.2759
 20
43.7189
 30
0.0
  0
VERTEX
  5
102
  8
LAYER_1
 62
   250
 10
-82.0287
 20
43.853
 30
0.0
  0
VERTEX
  5
103
  8
LAYER_1
 62
   250
 10
-81.7556
 20
43.9378
 30
0.0
  0
VERTEX
  5
104
  8
LAYER_1
 62
   250
 10
-81.4623
 20
43.9674
 30
0.0
  0
SEQEND
  5
16E
  8
LAYER_1
 62
   250
  0
POLYLINE
  5
74
  8
LAYER_1
 62
   250
 66
     1
 10
0.0
 20
0.0
 30
0.0
 70
     1
  0
VERTEX
  5
105
  8
LAYER_1
 62
   250
 10
-41.9352
 20
26.2309
 30
0.0
  0
VERTEX
  5
106
  8
LAYER_1
 62
   250
 10
-41.6419
 20
26.2605
 30
0.0
  0
VERTEX
  5
107
  8
LAYER_1
 62
   250
 10
-41.3688
 20
26.3453
 30
0.0
  0
VERTEX
  5
108
  8
LAYER_1
 62
   250
 10
-41.1216
 20
26.4794
 30
0.0
  0
VERTEX
  5
109
  8
LAYER_1
 62
   250
 10
-40.9062
 20
26.6571
 30
0.0
  0
VERTEX
  5
10A
  8
LAYER_1
 62
   250
 10
-40.7285
 20
26.8725
 30
0.0
  0
VERTEX
  5
10B
  8
LAYER_1
 62
   250
 10
-40.5944
 20
27.1197
 30
0.0
  0
VERTEX
  5
10C
  8
LAYER_1
 62
   250
 10
-40.5096
 20
27.3928
 30
0.0
  0
VERTEX
  5
10D
  8
LAYER_1
 62
   250
 10
-40.48
 20
27.6861
 30
0.0
  0
VERTEX
  5
10E
  8
LAYER_1
 62
   250
 10
-40.5096
 20
27.9794
 30
0.0
  0
VERTEX
  5
10F
  8
LAYER_1
 62
   250
 10
-40.5944
 20
28.2525
 30
0.0
  0
VERTEX
  5
110
  8
LAYER_1
 62
   250
 10
-40.7285
 20
28.4997
 30
0.0
  0
VERTEX
  5
111
  8
LAYER_1
 62
   250
 10
-40.9062
 20
28.7151
 30
0.0
  0
VERTEX
  5
112
  8
LAYER_1
 62
   250
 10
-41.1216
 20
28.8928
 30
0.0
  0
VERTEX
  5
113
  8
LAYER_1
 62
   250
 10
-41.3688
 20
29.0269
 30
0.0
  0
VERTEX
  5
114
  8
LAYER_1
 62
   250
 10
-41.6419
 20
29.1117
 30
0.0
  0
VERTEX
  5
115
  8
LAYER_1
 62
   250
 10
-41.9352
 20
29.1413
 30
0.0
  0
VERTEX
  5
116
  8
LAYER_1
 62
   250
 10
-42.2285
 20
29.1117
 30
0.0
  0
VERTEX
  5
117
  8
LAYER_1
 62
   250
 10
-42.5016
 20
29.0269
 30
0.0
  0
VERTEX
  5
118
  8
LAYER_1
 62
   250
 10
-42.7488
 20
28.8928
 30
0.0
  0
VERTEX
  5
119
  8
LAYER_1
 62
   250
 10
-42.9642
 20
28.7151
 30
0.0
  0
VERTEX
  5
11A
  8
LAYER_1
 62
   250
 10
-43.1419
 20
28.4997
 30
0.0
  0
VERTEX
  5
11B
  8
LAYER_1
 62
   250
 10
-43.276
 20
28.2525
 30
0.0
  0
VERTEX
  5
11C
  8
LAYER_1
 62
   250
 10
-43.3608
 20
27.9794
 30
0.0
  0
VERTEX
  5
11D
  8
LAYER_1
 62
   250
 10
-43.3904
 20
27.6861
 30
0.0
  0
VERTEX
  5
11E
  8
LAYER_1
 62
   250
 10
-43.3608
 20
27.3928
 30
0.0
  0
VERTEX
  5
11F
  8
LAYER_1
 62
   250
 10
-43.276
 20
27.1197
 30
0.0
  0
VERTEX
  5
120
  8
LAYER_1
 62
   250
 10
-43.1419
 20
26.8725
 30
0.0
  0
VERTEX
  5
121
  8
LAYER_1
 62
   250
 10
-42.9642
 20
26.6571
 30
0.0
  0
VERTEX
  5
122
  8
LAYER_1
 62
   250
 10
-42.7488
 20
26.4794
 30
0.0
  0
VERTEX
  5
123
  8
LAYER_1
 62
   250
 10
-42.5016
 20
26.3453
 30
0.0
  0
VERTEX
  5
124
  8
LAYER_1
 62
   250
 10
-42.2285
 20
26.2605
 30
0.0
  0
VERTEX
  5
125
  8
LAYER_1
 62
   250
 10
-41.9352
 20
26.2309
 30
0.0
  0
SEQEND
  5
16F
  8
LAYER_1
 62
   250
  0
POLYLINE
  5
75
  8
LAYER_1
 62
   250
 66
     1
 10
0.0
 20
0.0
 30
0.0
 70
     1
  0
VERTEX
  5
126
  8
LAYER_1
 62
   250
 10
11.4523
 20
7.4549
 30
0.0
  0
VERTEX
  5
127
  8
LAYER_1
 62
   250
 10
-38.5477
 20
7.4549
 30
0.0
  0
VERTEX
  5
128
  8
LAYER_1
 62
   250
 10
-62.5038
 20
7.4549
 30
0.0
  0
VERTEX
  5
129
  8
LAYER_1
 62
   250
 10
-65.5706
 20
7.6858
 30
0.0
  0
VERTEX
  5
12A
  8
LAYER_1
 62
   250
 10
-68.493
 20
8.3561
 30
0.0
  0
VERTEX
  5
12B
  8
LAYER_1
 62
   250
 10
-71.2372
 20
9.4318
 30
0.0
  0
VERTEX
  5
12C
  8
LAYER_1
 62
   250
 10
-73.7694
 20
10.8791
 30
0.0
  0
VERTEX
  5
12D
  8
LAYER_1
 62
   250
 10
-76.0557
 20
12.6642
 30
0.0
  0
VERTEX
  5
12E
  8
LAYER_1
 62
   250
 10
-78.0624
 20
14.7533
 30
0.0
  0
VERTEX
  5
12F
  8
LAYER_1
 62
   250
 10
-79.7555
 20
17.1126
 30
0.0
  0
VERTEX
  5
130
  8
LAYER_1
 62
   250
 10
-81.1012
 20
19.7081
 30
0.0
  0
VERTEX
  5
131
  8
LAYER_1
 62
   250
 10
-122.5477
 20
7.4549
 30
0.0
  0
VERTEX
  5
132
  8
LAYER_1
 62
   250
 10
-123.753
 20
7.5774
 30
0.0
  0
VERTEX
  5
133
  8
LAYER_1
 62
   250
 10
-124.8774
 20
7.9284
 30
0.0
  0
VERTEX
  5
134
  8
LAYER_1
 62
   250
 10
-125.8964
 20
8.4832
 30
0.0
  0
VERTEX
  5
135
  8
LAYER_1
 62
   250
 10
-126.7852
 20
9.2174
 30
0.0
  0
VERTEX
  5
136
  8
LAYER_1
 62
   250
 10
-127.5194
 20
10.1063
 30
0.0
  0
VERTEX
  5
137
  8
LAYER_1
 62
   250
 10
-128.0743
 20
11.1253
 30
0.0
  0
VERTEX
  5
138
  8
LAYER_1
 62
   250
 10
-128.4252
 20
12.2497
 30
0.0
  0
VERTEX
  5
139
  8
LAYER_1
 62
   250
 10
-128.5477
 20
13.4549
 30
0.0
  0
VERTEX
  5
13A
  8
LAYER_1
 62
   250
 10
-128.5477
 20
41.6715
 30
0.0
  0
VERTEX
  5
13B
  8
LAYER_1
 62
   250
 10
-128.4252
 20
42.8768
 30
0.0
  0
VERTEX
  5
13C
  8
LAYER_1
 62
   250
 10
-128.0743
 20
44.0012
 30
0.0
  0
VERTEX
  5
13D
  8
LAYER_1
 62
   250
 10
-127.5194
 20
45.0202
 30
0.0
  0
VERTEX
  5
13E
  8
LAYER_1
 62
   250
 10
-126.7852
 20
45.909
 30
0.0
  0
VERTEX
  5
13F
  8
LAYER_1
 62
   250
 10
-125.8964
 20
46.6432
 30
0.0
  0
VERTEX
  5
140
  8
LAYER_1
 62
   250
 10
-124.8774
 20
47.1981
 30
0.0
  0
VERTEX
  5
141
  8
LAYER_1
 62
   250
 10
-123.753
 20
47.549
 30
0.0
  0
VERTEX
  5
142
  8
LAYER_1
 62
   250
 10
-122.5477
 20
47.6715
 30
0.0
  0
VERTEX
  5
143
  8
LAYER_1
 62
   250
 10
-38.5477
 20
47.6715
 30
0.0
  0
VERTEX
  5
144
  8
LAYER_1
 62
   250
 10
11.4523
 20
47.6715
 30
0.0
  0
VERTEX
  5
145
  8
LAYER_1
 62
   250
 10
11.4523
 20
36.5261
 30
0.0
  0
VERTEX
  5
146
  8
LAYER_1
 62
   250
 10
-21.8477
 20
36.5261
 30
0.0
  0
VERTEX
  5
147
  8
LAYER_1
 62
   250
 10
-21.8477
 20
18.8461
 30
0.0
  0
VERTEX
  5
148
  8
LAYER_1
 62
   250
 10
11.4523
 20
18.8461
 30
0.0
  0
VERTEX
  5
149
  8
LAYER_1
 62
   250
 10
11.4523
 20
7.4549
 30
0.0
  0
SEQEND
  5
170
  8
LAYER_1
 62
   250
  0
POLYLINE
  5
76
  8
LAYER_1
 62
   250
 66
     1
 10
0.0
 20
0.0
 30
0.0
 70
     1
  0
VERTEX
  5
14A
  8
LAYER_1
 62
   250
 10
-73.6224
 20
27.6861
 30
0.0
  0
VERTEX
  5
14B
  8
LAYER_1
 62
   250
 10
-73.3965
 20
29.9269
 30
0.0
  0
VERTEX
  5
14C
  8
LAYER_1
 62
   250
 10
-72.7487
 20
32.014
 30
0.0
  0
VERTEX
  5
14D
  8
LAYER_1
 62
   250
 10
-71.7235
 20
33.9026
 30
0.0
  0
VERTEX
  5
14E
  8
LAYER_1
 62
   250
 10
-70.3659
 20
35.5482
 30
0.0
  0
VERTEX
  5
14F
  8
LAYER_1
 62
   250
 10
-68.7203
 20
36.9058
 30
0.0
  0
VERTEX
  5
150
  8
LAYER_1
 62
   250
 10
-66.8317
 20
37.931
 30
0.0
  0
VERTEX
  5
151
  8
LAYER_1
 62
   250
 10
-64.7446
 20
38.5788
 30
0.0
  0
VERTEX
  5
152
  8
LAYER_1
 62
   250
 10
-62.5038
 20
38.8047
 30
0.0
  0
VERTEX
  5
153
  8
LAYER_1
 62
   250
 10
-60.263
 20
38.5788
 30
0.0
  0
VERTEX
  5
154
  8
LAYER_1
 62
   250
 10
-58.1759
 20
37.931
 30
0.0
  0
VERTEX
  5
155
  8
LAYER_1
 62
   250
 10
-56.2873
 20
36.9058
 30
0.0
  0
VERTEX
  5
156
  8
LAYER_1
 62
   250
 10
-54.6417
 20
35.5482
 30
0.0
  0
VERTEX
  5
157
  8
LAYER_1
 62
   250
 10
-53.2841
 20
33.9026
 30
0.0
  0
VERTEX
  5
158
  8
LAYER_1
 62
   250
 10
-52.2589
 20
32.014
 30
0.0
  0
VERTEX
  5
159
  8
LAYER_1
 62
   250
 10
-51.6111
 20
29.9269
 30
0.0
  0
VERTEX
  5
15A
  8
LAYER_1
 62
   250
 10
-51.3852
 20
27.6861
 30
0.0
  0
VERTEX
  5
15B
  8
LAYER_1
 62
   250
 10
-51.6111
 20
25.4453
 30
0.0
  0
VERTEX
  5
15C
  8
LAYER_1
 62
   250
 10
-52.2589
 20
23.3582
 30
0.0
  0
VERTEX
  5
15D
  8
LAYER_1
 62
   250
 10
-53.2841
 20
21.4696
 30
0.0
  0
VERTEX
  5
15E
  8
LAYER_1
 62
   250
 10
-54.6417
 20
19.824
 30
0.0
  0
VERTEX
  5
15F
  8
LAYER_1
 62
   250
 10
-56.2873
 20
18.4664
 30
0.0
  0
VERTEX
  5
160
  8
LAYER_1
 62
   250
 10
-58.1759
 20
17.4412
 30
0.0
  0
VERTEX
  5
161
  8
LAYER_1
 62
   250
 10
-60.263
 20
16.7934
 30
0.0
  0
VERTEX
  5
162
  8
LAYER_1
 62
   250
 10
-62.5038
 20
16.5675
 30
0.0
  0
VERTEX
  5
163
  8
LAYER_1
 62
   250
 10
-64.7446
 20
16.7934
 30
0.0
  0
VERTEX
  5
164
  8
LAYER_1
 62
   250
 10
-66.8317
 20
17.4412
 30
0.0
  0
VERTEX
  5
165
  8
LAYER_1
 62
   250
 10
-68.7203
 20
18.4664
 30
0.0
  0
VERTEX
  5
166
  8
LAYER_1
 62
   250
 10
-70.3659
 20
19.824
 30
0.0
  0
VERTEX
  5
167
  8
LAYER_1
 62
   250
 10
-71.7235
 20
21.4696
 30
0.0
  0
VERTEX
  5
168
  8
LAYER_1
 62
   250
 10
-72.7487
 20
23.3582
 30
0.0
  0
VERTEX
  5
169
  8
LAYER_1
 62
   250
 10
-73.3965
 20
25.4453
 30
0.0
  0
VERTEX
  5
16A
  8
LAYER_1
 62
   250
 10
-73.6224
 20
27.6861
 30
0.0
  0
SEQEND
  5
171
  8
LAYER_1
 62
   250
  0
ENDSEC
  0
EOF
